<svg width="1651" height="265" viewBox="0 0 1651 265" fill="none" xmlns="http://www.w3.org/2000/svg">
<rect x="345" width="223" height="260" fill="#FBD304"/>
<rect x="706" width="223" height="260" fill="#FBD304"/>
<rect x="1067" width="223" height="260" fill="#FBD304"/>
<rect x="1428" width="223" height="260" fill="#FBD304"/>
<rect y="5" width="223" height="260" fill="#FDCB02"/>
<path d="M47.6914 95.8613H51.0664C50.8906 97.4785 50.4277 98.9258 49.6777 100.203C48.9277 101.48 47.8672 102.494 46.4961 103.244C45.125 103.982 43.4141 104.352 41.3633 104.352C39.8633 104.352 38.498 104.07 37.2676 103.508C36.0488 102.945 35 102.148 34.1211 101.117C33.2422 100.074 32.5625 98.8262 32.082 97.373C31.6133 95.9082 31.3789 94.2793 31.3789 92.4863V89.9375C31.3789 88.1445 31.6133 86.5215 32.082 85.0684C32.5625 83.6035 33.248 82.3496 34.1387 81.3066C35.041 80.2637 36.125 79.4609 37.3906 78.8984C38.6562 78.3359 40.0801 78.0547 41.6621 78.0547C43.5957 78.0547 45.2305 78.418 46.5664 79.1445C47.9023 79.8711 48.9395 80.8789 49.6777 82.168C50.4277 83.4453 50.8906 84.9277 51.0664 86.6152H47.6914C47.5273 85.4199 47.2227 84.3945 46.7773 83.5391C46.332 82.6719 45.6992 82.0039 44.8789 81.5352C44.0586 81.0664 42.9863 80.832 41.6621 80.832C40.5254 80.832 39.5234 81.0488 38.6562 81.4824C37.8008 81.916 37.0801 82.5312 36.4941 83.3281C35.9199 84.125 35.4863 85.0801 35.1934 86.1934C34.9004 87.3066 34.7539 88.543 34.7539 89.9023V92.4863C34.7539 93.7402 34.8828 94.918 35.1406 96.0195C35.4102 97.1211 35.8145 98.0879 36.3535 98.9199C36.8926 99.752 37.5781 100.408 38.4102 100.889C39.2422 101.357 40.2266 101.592 41.3633 101.592C42.8047 101.592 43.9531 101.363 44.8086 100.906C45.6641 100.449 46.3086 99.793 46.7422 98.9375C47.1875 98.082 47.5039 97.0566 47.6914 95.8613ZM66.4121 100.748V90.957C66.4121 90.207 66.2598 89.5566 65.9551 89.0059C65.6621 88.4434 65.2168 88.0098 64.6191 87.7051C64.0215 87.4004 63.2832 87.248 62.4043 87.248C61.584 87.248 60.8633 87.3887 60.2422 87.6699C59.6328 87.9512 59.1523 88.3203 58.8008 88.7773C58.4609 89.2344 58.291 89.7266 58.291 90.2539H55.0391C55.0391 89.5742 55.2148 88.9004 55.5664 88.2324C55.918 87.5645 56.4219 86.9609 57.0781 86.4219C57.7461 85.8711 58.543 85.4375 59.4688 85.1211C60.4062 84.793 61.4492 84.6289 62.5977 84.6289C63.9805 84.6289 65.1992 84.8633 66.2539 85.332C67.3203 85.8008 68.1523 86.5098 68.75 87.459C69.3594 88.3965 69.6641 89.5742 69.6641 90.9922V99.8516C69.6641 100.484 69.7168 101.158 69.8223 101.873C69.9395 102.588 70.1094 103.203 70.332 103.719V104H66.9395C66.7754 103.625 66.6465 103.127 66.5527 102.506C66.459 101.873 66.4121 101.287 66.4121 100.748ZM66.9746 92.4688L67.0098 94.7539H63.7227C62.7969 94.7539 61.9707 94.8301 61.2441 94.9824C60.5176 95.123 59.9082 95.3398 59.416 95.6328C58.9238 95.9258 58.5488 96.2949 58.291 96.7402C58.0332 97.1738 57.9043 97.6836 57.9043 98.2695C57.9043 98.8672 58.0391 99.4121 58.3086 99.9043C58.5781 100.396 58.9824 100.789 59.5215 101.082C60.0723 101.363 60.7461 101.504 61.543 101.504C62.5391 101.504 63.418 101.293 64.1797 100.871C64.9414 100.449 65.5449 99.9336 65.9902 99.3242C66.4473 98.7148 66.6934 98.123 66.7285 97.5488L68.1172 99.1133C68.0352 99.6055 67.8125 100.15 67.4492 100.748C67.0859 101.346 66.5996 101.92 65.9902 102.471C65.3926 103.01 64.6777 103.461 63.8457 103.824C63.0254 104.176 62.0996 104.352 61.0684 104.352C59.7793 104.352 58.6484 104.1 57.6758 103.596C56.7148 103.092 55.9648 102.418 55.4258 101.574C54.8984 100.719 54.6348 99.7637 54.6348 98.709C54.6348 97.6895 54.834 96.793 55.2324 96.0195C55.6309 95.2344 56.2051 94.584 56.9551 94.0684C57.7051 93.541 58.6074 93.1426 59.6621 92.873C60.7168 92.6035 61.8945 92.4688 63.1953 92.4688H66.9746ZM82.7422 84.9805V87.4766H72.459V84.9805H82.7422ZM75.9395 80.3574H79.1914V99.2891C79.1914 99.9336 79.291 100.42 79.4902 100.748C79.6895 101.076 79.9473 101.293 80.2637 101.398C80.5801 101.504 80.9199 101.557 81.2832 101.557C81.5527 101.557 81.834 101.533 82.127 101.486C82.4316 101.428 82.6602 101.381 82.8125 101.346L82.8301 104C82.5723 104.082 82.2324 104.158 81.8105 104.229C81.4004 104.311 80.9023 104.352 80.3164 104.352C79.5195 104.352 78.7871 104.193 78.1191 103.877C77.4512 103.561 76.918 103.033 76.5195 102.295C76.1328 101.545 75.9395 100.537 75.9395 99.2715V80.3574ZM94.4492 104.352C93.125 104.352 91.9238 104.129 90.8457 103.684C89.7793 103.227 88.8594 102.588 88.0859 101.768C87.3242 100.947 86.7383 99.9746 86.3281 98.8496C85.918 97.7246 85.7129 96.4941 85.7129 95.1582V94.4199C85.7129 92.873 85.9414 91.4961 86.3984 90.2891C86.8555 89.0703 87.4766 88.0391 88.2617 87.1953C89.0469 86.3516 89.9375 85.7129 90.9336 85.2793C91.9297 84.8457 92.9609 84.6289 94.0273 84.6289C95.3867 84.6289 96.5586 84.8633 97.543 85.332C98.5391 85.8008 99.3535 86.457 99.9863 87.3008C100.619 88.1328 101.088 89.1172 101.393 90.2539C101.697 91.3789 101.85 92.6094 101.85 93.9453V95.4043H87.6465V92.75H98.5977V92.5039C98.5508 91.6602 98.375 90.8398 98.0703 90.043C97.7773 89.2461 97.3086 88.5898 96.6641 88.0742C96.0195 87.5586 95.1406 87.3008 94.0273 87.3008C93.2891 87.3008 92.6094 87.459 91.9883 87.7754C91.3672 88.0801 90.834 88.5371 90.3887 89.1465C89.9434 89.7559 89.5977 90.5 89.3516 91.3789C89.1055 92.2578 88.9824 93.2715 88.9824 94.4199V95.1582C88.9824 96.0605 89.1055 96.9102 89.3516 97.707C89.6094 98.4922 89.9785 99.1836 90.459 99.7812C90.9512 100.379 91.543 100.848 92.2344 101.188C92.9375 101.527 93.7344 101.697 94.625 101.697C95.7734 101.697 96.7461 101.463 97.543 100.994C98.3398 100.525 99.0371 99.8984 99.6348 99.1133L101.604 100.678C101.193 101.299 100.672 101.891 100.039 102.453C99.4062 103.016 98.627 103.473 97.7012 103.824C96.7871 104.176 95.7031 104.352 94.4492 104.352ZM117.969 84.9805H120.922V103.596C120.922 105.271 120.582 106.701 119.902 107.885C119.223 109.068 118.273 109.965 117.055 110.574C115.848 111.195 114.453 111.506 112.871 111.506C112.215 111.506 111.441 111.4 110.551 111.189C109.672 110.99 108.805 110.645 107.949 110.152C107.105 109.672 106.396 109.021 105.822 108.201L107.527 106.268C108.324 107.229 109.156 107.896 110.023 108.271C110.902 108.646 111.77 108.834 112.625 108.834C113.656 108.834 114.547 108.641 115.297 108.254C116.047 107.867 116.627 107.293 117.037 106.531C117.459 105.781 117.67 104.855 117.67 103.754V89.1641L117.969 84.9805ZM104.873 94.7012V94.332C104.873 92.8789 105.043 91.5605 105.383 90.377C105.734 89.1816 106.232 88.1562 106.877 87.3008C107.533 86.4453 108.324 85.7891 109.25 85.332C110.176 84.8633 111.219 84.6289 112.379 84.6289C113.574 84.6289 114.617 84.8398 115.508 85.2617C116.41 85.6719 117.172 86.2754 117.793 87.0723C118.426 87.8574 118.924 88.8066 119.287 89.9199C119.65 91.0332 119.902 92.293 120.043 93.6992V95.3164C119.914 96.7109 119.662 97.9648 119.287 99.0781C118.924 100.191 118.426 101.141 117.793 101.926C117.172 102.711 116.41 103.314 115.508 103.736C114.605 104.146 113.551 104.352 112.344 104.352C111.207 104.352 110.176 104.111 109.25 103.631C108.336 103.15 107.551 102.477 106.895 101.609C106.238 100.742 105.734 99.7227 105.383 98.5508C105.043 97.3672 104.873 96.084 104.873 94.7012ZM108.125 94.332V94.7012C108.125 95.6504 108.219 96.541 108.406 97.373C108.605 98.2051 108.904 98.9375 109.303 99.5703C109.713 100.203 110.234 100.701 110.867 101.064C111.5 101.416 112.256 101.592 113.135 101.592C114.213 101.592 115.104 101.363 115.807 100.906C116.51 100.449 117.066 99.8457 117.477 99.0957C117.898 98.3457 118.227 97.5312 118.461 96.6523V92.416C118.332 91.7715 118.133 91.1504 117.863 90.5527C117.605 89.9434 117.266 89.4043 116.844 88.9355C116.434 88.4551 115.924 88.0742 115.314 87.793C114.705 87.5117 113.99 87.3711 113.17 87.3711C112.279 87.3711 111.512 87.5586 110.867 87.9336C110.234 88.2969 109.713 88.8008 109.303 89.4453C108.904 90.0781 108.605 90.8164 108.406 91.6602C108.219 92.4922 108.125 93.3828 108.125 94.332ZM125 94.7012V94.2969C125 92.9258 125.199 91.6543 125.598 90.4824C125.996 89.2988 126.57 88.2734 127.32 87.4062C128.07 86.5273 128.979 85.8477 130.045 85.3672C131.111 84.875 132.307 84.6289 133.631 84.6289C134.967 84.6289 136.168 84.875 137.234 85.3672C138.312 85.8477 139.227 86.5273 139.977 87.4062C140.738 88.2734 141.318 89.2988 141.717 90.4824C142.115 91.6543 142.314 92.9258 142.314 94.2969V94.7012C142.314 96.0723 142.115 97.3438 141.717 98.5156C141.318 99.6875 140.738 100.713 139.977 101.592C139.227 102.459 138.318 103.139 137.252 103.631C136.197 104.111 135.002 104.352 133.666 104.352C132.33 104.352 131.129 104.111 130.062 103.631C128.996 103.139 128.082 102.459 127.32 101.592C126.57 100.713 125.996 99.6875 125.598 98.5156C125.199 97.3438 125 96.0723 125 94.7012ZM128.252 94.2969V94.7012C128.252 95.6504 128.363 96.5469 128.586 97.3906C128.809 98.2227 129.143 98.9609 129.588 99.6055C130.045 100.25 130.613 100.76 131.293 101.135C131.973 101.498 132.764 101.68 133.666 101.68C134.557 101.68 135.336 101.498 136.004 101.135C136.684 100.76 137.246 100.25 137.691 99.6055C138.137 98.9609 138.471 98.2227 138.693 97.3906C138.928 96.5469 139.045 95.6504 139.045 94.7012V94.2969C139.045 93.3594 138.928 92.4746 138.693 91.6426C138.471 90.7988 138.131 90.0547 137.674 89.4102C137.229 88.7539 136.666 88.2383 135.986 87.8633C135.318 87.4883 134.533 87.3008 133.631 87.3008C132.74 87.3008 131.955 87.4883 131.275 87.8633C130.607 88.2383 130.045 88.7539 129.588 89.4102C129.143 90.0547 128.809 90.7988 128.586 91.6426C128.363 92.4746 128.252 93.3594 128.252 94.2969ZM149.645 87.9688V104H146.393V84.9805H149.557L149.645 87.9688ZM155.586 84.875L155.568 87.8984C155.299 87.8398 155.041 87.8047 154.795 87.793C154.561 87.7695 154.291 87.7578 153.986 87.7578C153.236 87.7578 152.574 87.875 152 88.1094C151.426 88.3438 150.939 88.6719 150.541 89.0938C150.143 89.5156 149.826 90.0195 149.592 90.6055C149.369 91.1797 149.223 91.8125 149.152 92.5039L148.238 93.0312C148.238 91.8828 148.35 90.8047 148.572 89.7969C148.807 88.7891 149.164 87.8984 149.645 87.125C150.125 86.3398 150.734 85.7305 151.473 85.2969C152.223 84.8516 153.113 84.6289 154.145 84.6289C154.379 84.6289 154.648 84.6582 154.953 84.7168C155.258 84.7637 155.469 84.8164 155.586 84.875ZM164.252 102.031L169.543 84.9805H173.023L165.395 106.936C165.219 107.404 164.984 107.908 164.691 108.447C164.41 108.998 164.047 109.52 163.602 110.012C163.156 110.504 162.617 110.902 161.984 111.207C161.363 111.523 160.619 111.682 159.752 111.682C159.494 111.682 159.166 111.646 158.768 111.576C158.369 111.506 158.088 111.447 157.924 111.4L157.906 108.764C158 108.775 158.146 108.787 158.346 108.799C158.557 108.822 158.703 108.834 158.785 108.834C159.523 108.834 160.15 108.734 160.666 108.535C161.182 108.348 161.615 108.025 161.967 107.568C162.33 107.123 162.641 106.508 162.898 105.723L164.252 102.031ZM160.367 84.9805L165.307 99.7461L166.15 103.174L163.812 104.369L156.816 84.9805H160.367ZM186.295 78.2656V104H183.043V82.3262L176.486 84.7168V81.7812L185.785 78.2656H186.295Z" fill="black"/>
<path d="M392.691 93.8613H396.066C395.891 95.4785 395.428 96.9258 394.678 98.2031C393.928 99.4805 392.867 100.494 391.496 101.244C390.125 101.982 388.414 102.352 386.363 102.352C384.863 102.352 383.498 102.07 382.268 101.508C381.049 100.945 380 100.148 379.121 99.1172C378.242 98.0742 377.562 96.8262 377.082 95.373C376.613 93.9082 376.379 92.2793 376.379 90.4863V87.9375C376.379 86.1445 376.613 84.5215 377.082 83.0684C377.562 81.6035 378.248 80.3496 379.139 79.3066C380.041 78.2637 381.125 77.4609 382.391 76.8984C383.656 76.3359 385.08 76.0547 386.662 76.0547C388.596 76.0547 390.23 76.418 391.566 77.1445C392.902 77.8711 393.939 78.8789 394.678 80.168C395.428 81.4453 395.891 82.9277 396.066 84.6152H392.691C392.527 83.4199 392.223 82.3945 391.777 81.5391C391.332 80.6719 390.699 80.0039 389.879 79.5352C389.059 79.0664 387.986 78.832 386.662 78.832C385.525 78.832 384.523 79.0488 383.656 79.4824C382.801 79.916 382.08 80.5312 381.494 81.3281C380.92 82.125 380.486 83.0801 380.193 84.1934C379.9 85.3066 379.754 86.543 379.754 87.9023V90.4863C379.754 91.7402 379.883 92.918 380.141 94.0195C380.41 95.1211 380.814 96.0879 381.354 96.9199C381.893 97.752 382.578 98.4082 383.41 98.8887C384.242 99.3574 385.227 99.5918 386.363 99.5918C387.805 99.5918 388.953 99.3633 389.809 98.9062C390.664 98.4492 391.309 97.793 391.742 96.9375C392.188 96.082 392.504 95.0566 392.691 93.8613ZM411.412 98.748V88.957C411.412 88.207 411.26 87.5566 410.955 87.0059C410.662 86.4434 410.217 86.0098 409.619 85.7051C409.021 85.4004 408.283 85.248 407.404 85.248C406.584 85.248 405.863 85.3887 405.242 85.6699C404.633 85.9512 404.152 86.3203 403.801 86.7773C403.461 87.2344 403.291 87.7266 403.291 88.2539H400.039C400.039 87.5742 400.215 86.9004 400.566 86.2324C400.918 85.5645 401.422 84.9609 402.078 84.4219C402.746 83.8711 403.543 83.4375 404.469 83.1211C405.406 82.793 406.449 82.6289 407.598 82.6289C408.98 82.6289 410.199 82.8633 411.254 83.332C412.32 83.8008 413.152 84.5098 413.75 85.459C414.359 86.3965 414.664 87.5742 414.664 88.9922V97.8516C414.664 98.4844 414.717 99.1582 414.822 99.873C414.939 100.588 415.109 101.203 415.332 101.719V102H411.939C411.775 101.625 411.646 101.127 411.553 100.506C411.459 99.873 411.412 99.2871 411.412 98.748ZM411.975 90.4688L412.01 92.7539H408.723C407.797 92.7539 406.971 92.8301 406.244 92.9824C405.518 93.123 404.908 93.3398 404.416 93.6328C403.924 93.9258 403.549 94.2949 403.291 94.7402C403.033 95.1738 402.904 95.6836 402.904 96.2695C402.904 96.8672 403.039 97.4121 403.309 97.9043C403.578 98.3965 403.982 98.7891 404.521 99.082C405.072 99.3633 405.746 99.5039 406.543 99.5039C407.539 99.5039 408.418 99.293 409.18 98.8711C409.941 98.4492 410.545 97.9336 410.99 97.3242C411.447 96.7148 411.693 96.123 411.729 95.5488L413.117 97.1133C413.035 97.6055 412.812 98.1504 412.449 98.748C412.086 99.3457 411.6 99.9199 410.99 100.471C410.393 101.01 409.678 101.461 408.846 101.824C408.025 102.176 407.1 102.352 406.068 102.352C404.779 102.352 403.648 102.1 402.676 101.596C401.715 101.092 400.965 100.418 400.426 99.5742C399.898 98.7188 399.635 97.7637 399.635 96.709C399.635 95.6895 399.834 94.793 400.232 94.0195C400.631 93.2344 401.205 92.584 401.955 92.0684C402.705 91.541 403.607 91.1426 404.662 90.873C405.717 90.6035 406.895 90.4688 408.195 90.4688H411.975ZM427.742 82.9805V85.4766H417.459V82.9805H427.742ZM420.939 78.3574H424.191V97.2891C424.191 97.9336 424.291 98.4199 424.49 98.748C424.689 99.0762 424.947 99.293 425.264 99.3984C425.58 99.5039 425.92 99.5566 426.283 99.5566C426.553 99.5566 426.834 99.5332 427.127 99.4863C427.432 99.4277 427.66 99.3809 427.812 99.3457L427.83 102C427.572 102.082 427.232 102.158 426.811 102.229C426.4 102.311 425.902 102.352 425.316 102.352C424.52 102.352 423.787 102.193 423.119 101.877C422.451 101.561 421.918 101.033 421.52 100.295C421.133 99.5449 420.939 98.5371 420.939 97.2715V78.3574ZM439.449 102.352C438.125 102.352 436.924 102.129 435.846 101.684C434.779 101.227 433.859 100.588 433.086 99.7676C432.324 98.9473 431.738 97.9746 431.328 96.8496C430.918 95.7246 430.713 94.4941 430.713 93.1582V92.4199C430.713 90.873 430.941 89.4961 431.398 88.2891C431.855 87.0703 432.477 86.0391 433.262 85.1953C434.047 84.3516 434.938 83.7129 435.934 83.2793C436.93 82.8457 437.961 82.6289 439.027 82.6289C440.387 82.6289 441.559 82.8633 442.543 83.332C443.539 83.8008 444.354 84.457 444.986 85.3008C445.619 86.1328 446.088 87.1172 446.393 88.2539C446.697 89.3789 446.85 90.6094 446.85 91.9453V93.4043H432.646V90.75H443.598V90.5039C443.551 89.6602 443.375 88.8398 443.07 88.043C442.777 87.2461 442.309 86.5898 441.664 86.0742C441.02 85.5586 440.141 85.3008 439.027 85.3008C438.289 85.3008 437.609 85.459 436.988 85.7754C436.367 86.0801 435.834 86.5371 435.389 87.1465C434.943 87.7559 434.598 88.5 434.352 89.3789C434.105 90.2578 433.982 91.2715 433.982 92.4199V93.1582C433.982 94.0605 434.105 94.9102 434.352 95.707C434.609 96.4922 434.979 97.1836 435.459 97.7812C435.951 98.3789 436.543 98.8477 437.234 99.1875C437.938 99.5273 438.734 99.6973 439.625 99.6973C440.773 99.6973 441.746 99.4629 442.543 98.9941C443.34 98.5254 444.037 97.8984 444.635 97.1133L446.604 98.6777C446.193 99.2988 445.672 99.8906 445.039 100.453C444.406 101.016 443.627 101.473 442.701 101.824C441.787 102.176 440.703 102.352 439.449 102.352ZM462.969 82.9805H465.922V101.596C465.922 103.271 465.582 104.701 464.902 105.885C464.223 107.068 463.273 107.965 462.055 108.574C460.848 109.195 459.453 109.506 457.871 109.506C457.215 109.506 456.441 109.4 455.551 109.189C454.672 108.99 453.805 108.645 452.949 108.152C452.105 107.672 451.396 107.021 450.822 106.201L452.527 104.268C453.324 105.229 454.156 105.896 455.023 106.271C455.902 106.646 456.77 106.834 457.625 106.834C458.656 106.834 459.547 106.641 460.297 106.254C461.047 105.867 461.627 105.293 462.037 104.531C462.459 103.781 462.67 102.855 462.67 101.754V87.1641L462.969 82.9805ZM449.873 92.7012V92.332C449.873 90.8789 450.043 89.5605 450.383 88.377C450.734 87.1816 451.232 86.1562 451.877 85.3008C452.533 84.4453 453.324 83.7891 454.25 83.332C455.176 82.8633 456.219 82.6289 457.379 82.6289C458.574 82.6289 459.617 82.8398 460.508 83.2617C461.41 83.6719 462.172 84.2754 462.793 85.0723C463.426 85.8574 463.924 86.8066 464.287 87.9199C464.65 89.0332 464.902 90.293 465.043 91.6992V93.3164C464.914 94.7109 464.662 95.9648 464.287 97.0781C463.924 98.1914 463.426 99.1406 462.793 99.9258C462.172 100.711 461.41 101.314 460.508 101.736C459.605 102.146 458.551 102.352 457.344 102.352C456.207 102.352 455.176 102.111 454.25 101.631C453.336 101.15 452.551 100.477 451.895 99.6094C451.238 98.7422 450.734 97.7227 450.383 96.5508C450.043 95.3672 449.873 94.084 449.873 92.7012ZM453.125 92.332V92.7012C453.125 93.6504 453.219 94.541 453.406 95.373C453.605 96.2051 453.904 96.9375 454.303 97.5703C454.713 98.2031 455.234 98.7012 455.867 99.0645C456.5 99.416 457.256 99.5918 458.135 99.5918C459.213 99.5918 460.104 99.3633 460.807 98.9062C461.51 98.4492 462.066 97.8457 462.477 97.0957C462.898 96.3457 463.227 95.5312 463.461 94.6523V90.416C463.332 89.7715 463.133 89.1504 462.863 88.5527C462.605 87.9434 462.266 87.4043 461.844 86.9355C461.434 86.4551 460.924 86.0742 460.314 85.793C459.705 85.5117 458.99 85.3711 458.17 85.3711C457.279 85.3711 456.512 85.5586 455.867 85.9336C455.234 86.2969 454.713 86.8008 454.303 87.4453C453.904 88.0781 453.605 88.8164 453.406 89.6602C453.219 90.4922 453.125 91.3828 453.125 92.332ZM470 92.7012V92.2969C470 90.9258 470.199 89.6543 470.598 88.4824C470.996 87.2988 471.57 86.2734 472.32 85.4062C473.07 84.5273 473.979 83.8477 475.045 83.3672C476.111 82.875 477.307 82.6289 478.631 82.6289C479.967 82.6289 481.168 82.875 482.234 83.3672C483.312 83.8477 484.227 84.5273 484.977 85.4062C485.738 86.2734 486.318 87.2988 486.717 88.4824C487.115 89.6543 487.314 90.9258 487.314 92.2969V92.7012C487.314 94.0723 487.115 95.3438 486.717 96.5156C486.318 97.6875 485.738 98.7129 484.977 99.5918C484.227 100.459 483.318 101.139 482.252 101.631C481.197 102.111 480.002 102.352 478.666 102.352C477.33 102.352 476.129 102.111 475.062 101.631C473.996 101.139 473.082 100.459 472.32 99.5918C471.57 98.7129 470.996 97.6875 470.598 96.5156C470.199 95.3438 470 94.0723 470 92.7012ZM473.252 92.2969V92.7012C473.252 93.6504 473.363 94.5469 473.586 95.3906C473.809 96.2227 474.143 96.9609 474.588 97.6055C475.045 98.25 475.613 98.7598 476.293 99.1348C476.973 99.498 477.764 99.6797 478.666 99.6797C479.557 99.6797 480.336 99.498 481.004 99.1348C481.684 98.7598 482.246 98.25 482.691 97.6055C483.137 96.9609 483.471 96.2227 483.693 95.3906C483.928 94.5469 484.045 93.6504 484.045 92.7012V92.2969C484.045 91.3594 483.928 90.4746 483.693 89.6426C483.471 88.7988 483.131 88.0547 482.674 87.4102C482.229 86.7539 481.666 86.2383 480.986 85.8633C480.318 85.4883 479.533 85.3008 478.631 85.3008C477.74 85.3008 476.955 85.4883 476.275 85.8633C475.607 86.2383 475.045 86.7539 474.588 87.4102C474.143 88.0547 473.809 88.7988 473.586 89.6426C473.363 90.4746 473.252 91.3594 473.252 92.2969ZM494.645 85.9688V102H491.393V82.9805H494.557L494.645 85.9688ZM500.586 82.875L500.568 85.8984C500.299 85.8398 500.041 85.8047 499.795 85.793C499.561 85.7695 499.291 85.7578 498.986 85.7578C498.236 85.7578 497.574 85.875 497 86.1094C496.426 86.3438 495.939 86.6719 495.541 87.0938C495.143 87.5156 494.826 88.0195 494.592 88.6055C494.369 89.1797 494.223 89.8125 494.152 90.5039L493.238 91.0312C493.238 89.8828 493.35 88.8047 493.572 87.7969C493.807 86.7891 494.164 85.8984 494.645 85.125C495.125 84.3398 495.734 83.7305 496.473 83.2969C497.223 82.8516 498.113 82.6289 499.145 82.6289C499.379 82.6289 499.648 82.6582 499.953 82.7168C500.258 82.7637 500.469 82.8164 500.586 82.875ZM509.252 100.031L514.543 82.9805H518.023L510.395 104.936C510.219 105.404 509.984 105.908 509.691 106.447C509.41 106.998 509.047 107.52 508.602 108.012C508.156 108.504 507.617 108.902 506.984 109.207C506.363 109.523 505.619 109.682 504.752 109.682C504.494 109.682 504.166 109.646 503.768 109.576C503.369 109.506 503.088 109.447 502.924 109.4L502.906 106.764C503 106.775 503.146 106.787 503.346 106.799C503.557 106.822 503.703 106.834 503.785 106.834C504.523 106.834 505.15 106.734 505.666 106.535C506.182 106.348 506.615 106.025 506.967 105.568C507.33 105.123 507.641 104.508 507.898 103.723L509.252 100.031ZM505.367 82.9805L510.307 97.7461L511.15 101.174L508.812 102.369L501.816 82.9805H505.367ZM537.377 99.3281V102H520.625V99.6621L529.01 90.3281C530.041 89.1797 530.838 88.207 531.4 87.4102C531.975 86.6016 532.373 85.8809 532.596 85.248C532.83 84.6035 532.947 83.9473 532.947 83.2793C532.947 82.4355 532.771 81.6738 532.42 80.9941C532.08 80.3027 531.576 79.752 530.908 79.3418C530.24 78.9316 529.432 78.7266 528.482 78.7266C527.346 78.7266 526.396 78.9492 525.635 79.3945C524.885 79.8281 524.322 80.4375 523.947 81.2227C523.572 82.0078 523.385 82.9102 523.385 83.9297H520.133C520.133 82.4883 520.449 81.1699 521.082 79.9746C521.715 78.7793 522.652 77.8301 523.895 77.127C525.137 76.4121 526.666 76.0547 528.482 76.0547C530.1 76.0547 531.482 76.3418 532.631 76.916C533.779 77.4785 534.658 78.2754 535.268 79.3066C535.889 80.3262 536.199 81.5215 536.199 82.8926C536.199 83.6426 536.07 84.4043 535.812 85.1777C535.566 85.9395 535.221 86.7012 534.775 87.4629C534.342 88.2246 533.832 88.9746 533.246 89.7129C532.672 90.4512 532.057 91.1777 531.4 91.8926L524.545 99.3281H537.377Z" fill="black"/>
<path d="M761.691 96.8613H765.066C764.891 98.4785 764.428 99.9258 763.678 101.203C762.928 102.48 761.867 103.494 760.496 104.244C759.125 104.982 757.414 105.352 755.363 105.352C753.863 105.352 752.498 105.07 751.268 104.508C750.049 103.945 749 103.148 748.121 102.117C747.242 101.074 746.562 99.8262 746.082 98.373C745.613 96.9082 745.379 95.2793 745.379 93.4863V90.9375C745.379 89.1445 745.613 87.5215 746.082 86.0684C746.562 84.6035 747.248 83.3496 748.139 82.3066C749.041 81.2637 750.125 80.4609 751.391 79.8984C752.656 79.3359 754.08 79.0547 755.662 79.0547C757.596 79.0547 759.23 79.418 760.566 80.1445C761.902 80.8711 762.939 81.8789 763.678 83.168C764.428 84.4453 764.891 85.9277 765.066 87.6152H761.691C761.527 86.4199 761.223 85.3945 760.777 84.5391C760.332 83.6719 759.699 83.0039 758.879 82.5352C758.059 82.0664 756.986 81.832 755.662 81.832C754.525 81.832 753.523 82.0488 752.656 82.4824C751.801 82.916 751.08 83.5312 750.494 84.3281C749.92 85.125 749.486 86.0801 749.193 87.1934C748.9 88.3066 748.754 89.543 748.754 90.9023V93.4863C748.754 94.7402 748.883 95.918 749.141 97.0195C749.41 98.1211 749.814 99.0879 750.354 99.9199C750.893 100.752 751.578 101.408 752.41 101.889C753.242 102.357 754.227 102.592 755.363 102.592C756.805 102.592 757.953 102.363 758.809 101.906C759.664 101.449 760.309 100.793 760.742 99.9375C761.188 99.082 761.504 98.0566 761.691 96.8613ZM780.412 101.748V91.957C780.412 91.207 780.26 90.5566 779.955 90.0059C779.662 89.4434 779.217 89.0098 778.619 88.7051C778.021 88.4004 777.283 88.248 776.404 88.248C775.584 88.248 774.863 88.3887 774.242 88.6699C773.633 88.9512 773.152 89.3203 772.801 89.7773C772.461 90.2344 772.291 90.7266 772.291 91.2539H769.039C769.039 90.5742 769.215 89.9004 769.566 89.2324C769.918 88.5645 770.422 87.9609 771.078 87.4219C771.746 86.8711 772.543 86.4375 773.469 86.1211C774.406 85.793 775.449 85.6289 776.598 85.6289C777.98 85.6289 779.199 85.8633 780.254 86.332C781.32 86.8008 782.152 87.5098 782.75 88.459C783.359 89.3965 783.664 90.5742 783.664 91.9922V100.852C783.664 101.484 783.717 102.158 783.822 102.873C783.939 103.588 784.109 104.203 784.332 104.719V105H780.939C780.775 104.625 780.646 104.127 780.553 103.506C780.459 102.873 780.412 102.287 780.412 101.748ZM780.975 93.4688L781.01 95.7539H777.723C776.797 95.7539 775.971 95.8301 775.244 95.9824C774.518 96.123 773.908 96.3398 773.416 96.6328C772.924 96.9258 772.549 97.2949 772.291 97.7402C772.033 98.1738 771.904 98.6836 771.904 99.2695C771.904 99.8672 772.039 100.412 772.309 100.904C772.578 101.396 772.982 101.789 773.521 102.082C774.072 102.363 774.746 102.504 775.543 102.504C776.539 102.504 777.418 102.293 778.18 101.871C778.941 101.449 779.545 100.934 779.99 100.324C780.447 99.7148 780.693 99.123 780.729 98.5488L782.117 100.113C782.035 100.605 781.812 101.15 781.449 101.748C781.086 102.346 780.6 102.92 779.99 103.471C779.393 104.01 778.678 104.461 777.846 104.824C777.025 105.176 776.1 105.352 775.068 105.352C773.779 105.352 772.648 105.1 771.676 104.596C770.715 104.092 769.965 103.418 769.426 102.574C768.898 101.719 768.635 100.764 768.635 99.709C768.635 98.6895 768.834 97.793 769.232 97.0195C769.631 96.2344 770.205 95.584 770.955 95.0684C771.705 94.541 772.607 94.1426 773.662 93.873C774.717 93.6035 775.895 93.4688 777.195 93.4688H780.975ZM796.742 85.9805V88.4766H786.459V85.9805H796.742ZM789.939 81.3574H793.191V100.289C793.191 100.934 793.291 101.42 793.49 101.748C793.689 102.076 793.947 102.293 794.264 102.398C794.58 102.504 794.92 102.557 795.283 102.557C795.553 102.557 795.834 102.533 796.127 102.486C796.432 102.428 796.66 102.381 796.812 102.346L796.83 105C796.572 105.082 796.232 105.158 795.811 105.229C795.4 105.311 794.902 105.352 794.316 105.352C793.52 105.352 792.787 105.193 792.119 104.877C791.451 104.561 790.918 104.033 790.52 103.295C790.133 102.545 789.939 101.537 789.939 100.271V81.3574ZM808.449 105.352C807.125 105.352 805.924 105.129 804.846 104.684C803.779 104.227 802.859 103.588 802.086 102.768C801.324 101.947 800.738 100.975 800.328 99.8496C799.918 98.7246 799.713 97.4941 799.713 96.1582V95.4199C799.713 93.873 799.941 92.4961 800.398 91.2891C800.855 90.0703 801.477 89.0391 802.262 88.1953C803.047 87.3516 803.938 86.7129 804.934 86.2793C805.93 85.8457 806.961 85.6289 808.027 85.6289C809.387 85.6289 810.559 85.8633 811.543 86.332C812.539 86.8008 813.354 87.457 813.986 88.3008C814.619 89.1328 815.088 90.1172 815.393 91.2539C815.697 92.3789 815.85 93.6094 815.85 94.9453V96.4043H801.646V93.75H812.598V93.5039C812.551 92.6602 812.375 91.8398 812.07 91.043C811.777 90.2461 811.309 89.5898 810.664 89.0742C810.02 88.5586 809.141 88.3008 808.027 88.3008C807.289 88.3008 806.609 88.459 805.988 88.7754C805.367 89.0801 804.834 89.5371 804.389 90.1465C803.943 90.7559 803.598 91.5 803.352 92.3789C803.105 93.2578 802.982 94.2715 802.982 95.4199V96.1582C802.982 97.0605 803.105 97.9102 803.352 98.707C803.609 99.4922 803.979 100.184 804.459 100.781C804.951 101.379 805.543 101.848 806.234 102.188C806.938 102.527 807.734 102.697 808.625 102.697C809.773 102.697 810.746 102.463 811.543 101.994C812.34 101.525 813.037 100.898 813.635 100.113L815.604 101.678C815.193 102.299 814.672 102.891 814.039 103.453C813.406 104.016 812.627 104.473 811.701 104.824C810.787 105.176 809.703 105.352 808.449 105.352ZM831.969 85.9805H834.922V104.596C834.922 106.271 834.582 107.701 833.902 108.885C833.223 110.068 832.273 110.965 831.055 111.574C829.848 112.195 828.453 112.506 826.871 112.506C826.215 112.506 825.441 112.4 824.551 112.189C823.672 111.99 822.805 111.645 821.949 111.152C821.105 110.672 820.396 110.021 819.822 109.201L821.527 107.268C822.324 108.229 823.156 108.896 824.023 109.271C824.902 109.646 825.77 109.834 826.625 109.834C827.656 109.834 828.547 109.641 829.297 109.254C830.047 108.867 830.627 108.293 831.037 107.531C831.459 106.781 831.67 105.855 831.67 104.754V90.1641L831.969 85.9805ZM818.873 95.7012V95.332C818.873 93.8789 819.043 92.5605 819.383 91.377C819.734 90.1816 820.232 89.1562 820.877 88.3008C821.533 87.4453 822.324 86.7891 823.25 86.332C824.176 85.8633 825.219 85.6289 826.379 85.6289C827.574 85.6289 828.617 85.8398 829.508 86.2617C830.41 86.6719 831.172 87.2754 831.793 88.0723C832.426 88.8574 832.924 89.8066 833.287 90.9199C833.65 92.0332 833.902 93.293 834.043 94.6992V96.3164C833.914 97.7109 833.662 98.9648 833.287 100.078C832.924 101.191 832.426 102.141 831.793 102.926C831.172 103.711 830.41 104.314 829.508 104.736C828.605 105.146 827.551 105.352 826.344 105.352C825.207 105.352 824.176 105.111 823.25 104.631C822.336 104.15 821.551 103.477 820.895 102.609C820.238 101.742 819.734 100.723 819.383 99.5508C819.043 98.3672 818.873 97.084 818.873 95.7012ZM822.125 95.332V95.7012C822.125 96.6504 822.219 97.541 822.406 98.373C822.605 99.2051 822.904 99.9375 823.303 100.57C823.713 101.203 824.234 101.701 824.867 102.064C825.5 102.416 826.256 102.592 827.135 102.592C828.213 102.592 829.104 102.363 829.807 101.906C830.51 101.449 831.066 100.846 831.477 100.096C831.898 99.3457 832.227 98.5312 832.461 97.6523V93.416C832.332 92.7715 832.133 92.1504 831.863 91.5527C831.605 90.9434 831.266 90.4043 830.844 89.9355C830.434 89.4551 829.924 89.0742 829.314 88.793C828.705 88.5117 827.99 88.3711 827.17 88.3711C826.279 88.3711 825.512 88.5586 824.867 88.9336C824.234 89.2969 823.713 89.8008 823.303 90.4453C822.904 91.0781 822.605 91.8164 822.406 92.6602C822.219 93.4922 822.125 94.3828 822.125 95.332ZM839 95.7012V95.2969C839 93.9258 839.199 92.6543 839.598 91.4824C839.996 90.2988 840.57 89.2734 841.32 88.4062C842.07 87.5273 842.979 86.8477 844.045 86.3672C845.111 85.875 846.307 85.6289 847.631 85.6289C848.967 85.6289 850.168 85.875 851.234 86.3672C852.312 86.8477 853.227 87.5273 853.977 88.4062C854.738 89.2734 855.318 90.2988 855.717 91.4824C856.115 92.6543 856.314 93.9258 856.314 95.2969V95.7012C856.314 97.0723 856.115 98.3438 855.717 99.5156C855.318 100.688 854.738 101.713 853.977 102.592C853.227 103.459 852.318 104.139 851.252 104.631C850.197 105.111 849.002 105.352 847.666 105.352C846.33 105.352 845.129 105.111 844.062 104.631C842.996 104.139 842.082 103.459 841.32 102.592C840.57 101.713 839.996 100.688 839.598 99.5156C839.199 98.3438 839 97.0723 839 95.7012ZM842.252 95.2969V95.7012C842.252 96.6504 842.363 97.5469 842.586 98.3906C842.809 99.2227 843.143 99.9609 843.588 100.605C844.045 101.25 844.613 101.76 845.293 102.135C845.973 102.498 846.764 102.68 847.666 102.68C848.557 102.68 849.336 102.498 850.004 102.135C850.684 101.76 851.246 101.25 851.691 100.605C852.137 99.9609 852.471 99.2227 852.693 98.3906C852.928 97.5469 853.045 96.6504 853.045 95.7012V95.2969C853.045 94.3594 852.928 93.4746 852.693 92.6426C852.471 91.7988 852.131 91.0547 851.674 90.4102C851.229 89.7539 850.666 89.2383 849.986 88.8633C849.318 88.4883 848.533 88.3008 847.631 88.3008C846.74 88.3008 845.955 88.4883 845.275 88.8633C844.607 89.2383 844.045 89.7539 843.588 90.4102C843.143 91.0547 842.809 91.7988 842.586 92.6426C842.363 93.4746 842.252 94.3594 842.252 95.2969ZM863.645 88.9688V105H860.393V85.9805H863.557L863.645 88.9688ZM869.586 85.875L869.568 88.8984C869.299 88.8398 869.041 88.8047 868.795 88.793C868.561 88.7695 868.291 88.7578 867.986 88.7578C867.236 88.7578 866.574 88.875 866 89.1094C865.426 89.3438 864.939 89.6719 864.541 90.0938C864.143 90.5156 863.826 91.0195 863.592 91.6055C863.369 92.1797 863.223 92.8125 863.152 93.5039L862.238 94.0312C862.238 92.8828 862.35 91.8047 862.572 90.7969C862.807 89.7891 863.164 88.8984 863.645 88.125C864.125 87.3398 864.734 86.7305 865.473 86.2969C866.223 85.8516 867.113 85.6289 868.145 85.6289C868.379 85.6289 868.648 85.6582 868.953 85.7168C869.258 85.7637 869.469 85.8164 869.586 85.875ZM878.252 103.031L883.543 85.9805H887.023L879.395 107.936C879.219 108.404 878.984 108.908 878.691 109.447C878.41 109.998 878.047 110.52 877.602 111.012C877.156 111.504 876.617 111.902 875.984 112.207C875.363 112.523 874.619 112.682 873.752 112.682C873.494 112.682 873.166 112.646 872.768 112.576C872.369 112.506 872.088 112.447 871.924 112.4L871.906 109.764C872 109.775 872.146 109.787 872.346 109.799C872.557 109.822 872.703 109.834 872.785 109.834C873.523 109.834 874.15 109.734 874.666 109.535C875.182 109.348 875.615 109.025 875.967 108.568C876.33 108.123 876.641 107.508 876.898 106.723L878.252 103.031ZM874.367 85.9805L879.307 100.746L880.15 104.174L877.812 105.369L870.816 85.9805H874.367ZM900.295 79.2656V105H897.043V83.3262L890.486 85.7168V82.7812L899.785 79.2656H900.295Z" fill="black"/>
<path d="M1106.69 90.8613H1110.07C1109.89 92.4785 1109.43 93.9258 1108.68 95.2031C1107.93 96.4805 1106.87 97.4941 1105.5 98.2441C1104.12 98.9824 1102.41 99.3516 1100.36 99.3516C1098.86 99.3516 1097.5 99.0703 1096.27 98.5078C1095.05 97.9453 1094 97.1484 1093.12 96.1172C1092.24 95.0742 1091.56 93.8262 1091.08 92.373C1090.61 90.9082 1090.38 89.2793 1090.38 87.4863V84.9375C1090.38 83.1445 1090.61 81.5215 1091.08 80.0684C1091.56 78.6035 1092.25 77.3496 1093.14 76.3066C1094.04 75.2637 1095.12 74.4609 1096.39 73.8984C1097.66 73.3359 1099.08 73.0547 1100.66 73.0547C1102.6 73.0547 1104.23 73.418 1105.57 74.1445C1106.9 74.8711 1107.94 75.8789 1108.68 77.168C1109.43 78.4453 1109.89 79.9277 1110.07 81.6152H1106.69C1106.53 80.4199 1106.22 79.3945 1105.78 78.5391C1105.33 77.6719 1104.7 77.0039 1103.88 76.5352C1103.06 76.0664 1101.99 75.832 1100.66 75.832C1099.53 75.832 1098.52 76.0488 1097.66 76.4824C1096.8 76.916 1096.08 77.5312 1095.49 78.3281C1094.92 79.125 1094.49 80.0801 1094.19 81.1934C1093.9 82.3066 1093.75 83.543 1093.75 84.9023V87.4863C1093.75 88.7402 1093.88 89.918 1094.14 91.0195C1094.41 92.1211 1094.81 93.0879 1095.35 93.9199C1095.89 94.752 1096.58 95.4082 1097.41 95.8887C1098.24 96.3574 1099.23 96.5918 1100.36 96.5918C1101.8 96.5918 1102.95 96.3633 1103.81 95.9062C1104.66 95.4492 1105.31 94.793 1105.74 93.9375C1106.19 93.082 1106.5 92.0566 1106.69 90.8613ZM1125.41 95.748V85.957C1125.41 85.207 1125.26 84.5566 1124.96 84.0059C1124.66 83.4434 1124.22 83.0098 1123.62 82.7051C1123.02 82.4004 1122.28 82.248 1121.4 82.248C1120.58 82.248 1119.86 82.3887 1119.24 82.6699C1118.63 82.9512 1118.15 83.3203 1117.8 83.7773C1117.46 84.2344 1117.29 84.7266 1117.29 85.2539H1114.04C1114.04 84.5742 1114.21 83.9004 1114.57 83.2324C1114.92 82.5645 1115.42 81.9609 1116.08 81.4219C1116.75 80.8711 1117.54 80.4375 1118.47 80.1211C1119.41 79.793 1120.45 79.6289 1121.6 79.6289C1122.98 79.6289 1124.2 79.8633 1125.25 80.332C1126.32 80.8008 1127.15 81.5098 1127.75 82.459C1128.36 83.3965 1128.66 84.5742 1128.66 85.9922V94.8516C1128.66 95.4844 1128.72 96.1582 1128.82 96.873C1128.94 97.5879 1129.11 98.2031 1129.33 98.7188V99H1125.94C1125.78 98.625 1125.65 98.127 1125.55 97.5059C1125.46 96.873 1125.41 96.2871 1125.41 95.748ZM1125.97 87.4688L1126.01 89.7539H1122.72C1121.8 89.7539 1120.97 89.8301 1120.24 89.9824C1119.52 90.123 1118.91 90.3398 1118.42 90.6328C1117.92 90.9258 1117.55 91.2949 1117.29 91.7402C1117.03 92.1738 1116.9 92.6836 1116.9 93.2695C1116.9 93.8672 1117.04 94.4121 1117.31 94.9043C1117.58 95.3965 1117.98 95.7891 1118.52 96.082C1119.07 96.3633 1119.75 96.5039 1120.54 96.5039C1121.54 96.5039 1122.42 96.293 1123.18 95.8711C1123.94 95.4492 1124.54 94.9336 1124.99 94.3242C1125.45 93.7148 1125.69 93.123 1125.73 92.5488L1127.12 94.1133C1127.04 94.6055 1126.81 95.1504 1126.45 95.748C1126.09 96.3457 1125.6 96.9199 1124.99 97.4707C1124.39 98.0098 1123.68 98.4609 1122.85 98.8242C1122.03 99.1758 1121.1 99.3516 1120.07 99.3516C1118.78 99.3516 1117.65 99.0996 1116.68 98.5957C1115.71 98.0918 1114.96 97.418 1114.43 96.5742C1113.9 95.7188 1113.63 94.7637 1113.63 93.709C1113.63 92.6895 1113.83 91.793 1114.23 91.0195C1114.63 90.2344 1115.21 89.584 1115.96 89.0684C1116.71 88.541 1117.61 88.1426 1118.66 87.873C1119.72 87.6035 1120.89 87.4688 1122.2 87.4688H1125.97ZM1141.74 79.9805V82.4766H1131.46V79.9805H1141.74ZM1134.94 75.3574H1138.19V94.2891C1138.19 94.9336 1138.29 95.4199 1138.49 95.748C1138.69 96.0762 1138.95 96.293 1139.26 96.3984C1139.58 96.5039 1139.92 96.5566 1140.28 96.5566C1140.55 96.5566 1140.83 96.5332 1141.13 96.4863C1141.43 96.4277 1141.66 96.3809 1141.81 96.3457L1141.83 99C1141.57 99.082 1141.23 99.1582 1140.81 99.2285C1140.4 99.3105 1139.9 99.3516 1139.32 99.3516C1138.52 99.3516 1137.79 99.1934 1137.12 98.877C1136.45 98.5605 1135.92 98.0332 1135.52 97.2949C1135.13 96.5449 1134.94 95.5371 1134.94 94.2715V75.3574ZM1153.45 99.3516C1152.12 99.3516 1150.92 99.1289 1149.85 98.6836C1148.78 98.2266 1147.86 97.5879 1147.09 96.7676C1146.32 95.9473 1145.74 94.9746 1145.33 93.8496C1144.92 92.7246 1144.71 91.4941 1144.71 90.1582V89.4199C1144.71 87.873 1144.94 86.4961 1145.4 85.2891C1145.86 84.0703 1146.48 83.0391 1147.26 82.1953C1148.05 81.3516 1148.94 80.7129 1149.93 80.2793C1150.93 79.8457 1151.96 79.6289 1153.03 79.6289C1154.39 79.6289 1155.56 79.8633 1156.54 80.332C1157.54 80.8008 1158.35 81.457 1158.99 82.3008C1159.62 83.1328 1160.09 84.1172 1160.39 85.2539C1160.7 86.3789 1160.85 87.6094 1160.85 88.9453V90.4043H1146.65V87.75H1157.6V87.5039C1157.55 86.6602 1157.38 85.8398 1157.07 85.043C1156.78 84.2461 1156.31 83.5898 1155.66 83.0742C1155.02 82.5586 1154.14 82.3008 1153.03 82.3008C1152.29 82.3008 1151.61 82.459 1150.99 82.7754C1150.37 83.0801 1149.83 83.5371 1149.39 84.1465C1148.94 84.7559 1148.6 85.5 1148.35 86.3789C1148.11 87.2578 1147.98 88.2715 1147.98 89.4199V90.1582C1147.98 91.0605 1148.11 91.9102 1148.35 92.707C1148.61 93.4922 1148.98 94.1836 1149.46 94.7812C1149.95 95.3789 1150.54 95.8477 1151.23 96.1875C1151.94 96.5273 1152.73 96.6973 1153.62 96.6973C1154.77 96.6973 1155.75 96.4629 1156.54 95.9941C1157.34 95.5254 1158.04 94.8984 1158.63 94.1133L1160.6 95.6777C1160.19 96.2988 1159.67 96.8906 1159.04 97.4531C1158.41 98.0156 1157.63 98.4727 1156.7 98.8242C1155.79 99.1758 1154.7 99.3516 1153.45 99.3516ZM1176.97 79.9805H1179.92V98.5957C1179.92 100.271 1179.58 101.701 1178.9 102.885C1178.22 104.068 1177.27 104.965 1176.05 105.574C1174.85 106.195 1173.45 106.506 1171.87 106.506C1171.21 106.506 1170.44 106.4 1169.55 106.189C1168.67 105.99 1167.8 105.645 1166.95 105.152C1166.11 104.672 1165.4 104.021 1164.82 103.201L1166.53 101.268C1167.32 102.229 1168.16 102.896 1169.02 103.271C1169.9 103.646 1170.77 103.834 1171.62 103.834C1172.66 103.834 1173.55 103.641 1174.3 103.254C1175.05 102.867 1175.63 102.293 1176.04 101.531C1176.46 100.781 1176.67 99.8555 1176.67 98.7539V84.1641L1176.97 79.9805ZM1163.87 89.7012V89.332C1163.87 87.8789 1164.04 86.5605 1164.38 85.377C1164.73 84.1816 1165.23 83.1562 1165.88 82.3008C1166.53 81.4453 1167.32 80.7891 1168.25 80.332C1169.18 79.8633 1170.22 79.6289 1171.38 79.6289C1172.57 79.6289 1173.62 79.8398 1174.51 80.2617C1175.41 80.6719 1176.17 81.2754 1176.79 82.0723C1177.43 82.8574 1177.92 83.8066 1178.29 84.9199C1178.65 86.0332 1178.9 87.293 1179.04 88.6992V90.3164C1178.91 91.7109 1178.66 92.9648 1178.29 94.0781C1177.92 95.1914 1177.43 96.1406 1176.79 96.9258C1176.17 97.7109 1175.41 98.3145 1174.51 98.7363C1173.61 99.1465 1172.55 99.3516 1171.34 99.3516C1170.21 99.3516 1169.18 99.1113 1168.25 98.6309C1167.34 98.1504 1166.55 97.4766 1165.89 96.6094C1165.24 95.7422 1164.73 94.7227 1164.38 93.5508C1164.04 92.3672 1163.87 91.084 1163.87 89.7012ZM1167.12 89.332V89.7012C1167.12 90.6504 1167.22 91.541 1167.41 92.373C1167.61 93.2051 1167.9 93.9375 1168.3 94.5703C1168.71 95.2031 1169.23 95.7012 1169.87 96.0645C1170.5 96.416 1171.26 96.5918 1172.13 96.5918C1173.21 96.5918 1174.1 96.3633 1174.81 95.9062C1175.51 95.4492 1176.07 94.8457 1176.48 94.0957C1176.9 93.3457 1177.23 92.5312 1177.46 91.6523V87.416C1177.33 86.7715 1177.13 86.1504 1176.86 85.5527C1176.61 84.9434 1176.27 84.4043 1175.84 83.9355C1175.43 83.4551 1174.92 83.0742 1174.31 82.793C1173.71 82.5117 1172.99 82.3711 1172.17 82.3711C1171.28 82.3711 1170.51 82.5586 1169.87 82.9336C1169.23 83.2969 1168.71 83.8008 1168.3 84.4453C1167.9 85.0781 1167.61 85.8164 1167.41 86.6602C1167.22 87.4922 1167.12 88.3828 1167.12 89.332ZM1184 89.7012V89.2969C1184 87.9258 1184.2 86.6543 1184.6 85.4824C1185 84.2988 1185.57 83.2734 1186.32 82.4062C1187.07 81.5273 1187.98 80.8477 1189.04 80.3672C1190.11 79.875 1191.31 79.6289 1192.63 79.6289C1193.97 79.6289 1195.17 79.875 1196.23 80.3672C1197.31 80.8477 1198.23 81.5273 1198.98 82.4062C1199.74 83.2734 1200.32 84.2988 1200.72 85.4824C1201.12 86.6543 1201.31 87.9258 1201.31 89.2969V89.7012C1201.31 91.0723 1201.12 92.3438 1200.72 93.5156C1200.32 94.6875 1199.74 95.7129 1198.98 96.5918C1198.23 97.459 1197.32 98.1387 1196.25 98.6309C1195.2 99.1113 1194 99.3516 1192.67 99.3516C1191.33 99.3516 1190.13 99.1113 1189.06 98.6309C1188 98.1387 1187.08 97.459 1186.32 96.5918C1185.57 95.7129 1185 94.6875 1184.6 93.5156C1184.2 92.3438 1184 91.0723 1184 89.7012ZM1187.25 89.2969V89.7012C1187.25 90.6504 1187.36 91.5469 1187.59 92.3906C1187.81 93.2227 1188.14 93.9609 1188.59 94.6055C1189.04 95.25 1189.61 95.7598 1190.29 96.1348C1190.97 96.498 1191.76 96.6797 1192.67 96.6797C1193.56 96.6797 1194.34 96.498 1195 96.1348C1195.68 95.7598 1196.25 95.25 1196.69 94.6055C1197.14 93.9609 1197.47 93.2227 1197.69 92.3906C1197.93 91.5469 1198.04 90.6504 1198.04 89.7012V89.2969C1198.04 88.3594 1197.93 87.4746 1197.69 86.6426C1197.47 85.7988 1197.13 85.0547 1196.67 84.4102C1196.23 83.7539 1195.67 83.2383 1194.99 82.8633C1194.32 82.4883 1193.53 82.3008 1192.63 82.3008C1191.74 82.3008 1190.96 82.4883 1190.28 82.8633C1189.61 83.2383 1189.04 83.7539 1188.59 84.4102C1188.14 85.0547 1187.81 85.7988 1187.59 86.6426C1187.36 87.4746 1187.25 88.3594 1187.25 89.2969ZM1208.64 82.9688V99H1205.39V79.9805H1208.56L1208.64 82.9688ZM1214.59 79.875L1214.57 82.8984C1214.3 82.8398 1214.04 82.8047 1213.79 82.793C1213.56 82.7695 1213.29 82.7578 1212.99 82.7578C1212.24 82.7578 1211.57 82.875 1211 83.1094C1210.43 83.3438 1209.94 83.6719 1209.54 84.0938C1209.14 84.5156 1208.83 85.0195 1208.59 85.6055C1208.37 86.1797 1208.22 86.8125 1208.15 87.5039L1207.24 88.0312C1207.24 86.8828 1207.35 85.8047 1207.57 84.7969C1207.81 83.7891 1208.16 82.8984 1208.64 82.125C1209.12 81.3398 1209.73 80.7305 1210.47 80.2969C1211.22 79.8516 1212.11 79.6289 1213.14 79.6289C1213.38 79.6289 1213.65 79.6582 1213.95 79.7168C1214.26 79.7637 1214.47 79.8164 1214.59 79.875ZM1223.25 97.0312L1228.54 79.9805H1232.02L1224.39 101.936C1224.22 102.404 1223.98 102.908 1223.69 103.447C1223.41 103.998 1223.05 104.52 1222.6 105.012C1222.16 105.504 1221.62 105.902 1220.98 106.207C1220.36 106.523 1219.62 106.682 1218.75 106.682C1218.49 106.682 1218.17 106.646 1217.77 106.576C1217.37 106.506 1217.09 106.447 1216.92 106.4L1216.91 103.764C1217 103.775 1217.15 103.787 1217.35 103.799C1217.56 103.822 1217.7 103.834 1217.79 103.834C1218.52 103.834 1219.15 103.734 1219.67 103.535C1220.18 103.348 1220.62 103.025 1220.97 102.568C1221.33 102.123 1221.64 101.508 1221.9 100.723L1223.25 97.0312ZM1219.37 79.9805L1224.31 94.7461L1225.15 98.1738L1222.81 99.3691L1215.82 79.9805H1219.37ZM1251.9 90.3867V93.0586H1233.41V91.1426L1244.87 73.4062H1247.53L1244.68 78.5391L1237.1 90.3867H1251.9ZM1248.34 73.4062V99H1245.08V73.4062H1248.34Z" fill="black"/>
<path d="M1467.69 89.8613H1471.07C1470.89 91.4785 1470.43 92.9258 1469.68 94.2031C1468.93 95.4805 1467.87 96.4941 1466.5 97.2441C1465.12 97.9824 1463.41 98.3516 1461.36 98.3516C1459.86 98.3516 1458.5 98.0703 1457.27 97.5078C1456.05 96.9453 1455 96.1484 1454.12 95.1172C1453.24 94.0742 1452.56 92.8262 1452.08 91.373C1451.61 89.9082 1451.38 88.2793 1451.38 86.4863V83.9375C1451.38 82.1445 1451.61 80.5215 1452.08 79.0684C1452.56 77.6035 1453.25 76.3496 1454.14 75.3066C1455.04 74.2637 1456.12 73.4609 1457.39 72.8984C1458.66 72.3359 1460.08 72.0547 1461.66 72.0547C1463.6 72.0547 1465.23 72.418 1466.57 73.1445C1467.9 73.8711 1468.94 74.8789 1469.68 76.168C1470.43 77.4453 1470.89 78.9277 1471.07 80.6152H1467.69C1467.53 79.4199 1467.22 78.3945 1466.78 77.5391C1466.33 76.6719 1465.7 76.0039 1464.88 75.5352C1464.06 75.0664 1462.99 74.832 1461.66 74.832C1460.53 74.832 1459.52 75.0488 1458.66 75.4824C1457.8 75.916 1457.08 76.5312 1456.49 77.3281C1455.92 78.125 1455.49 79.0801 1455.19 80.1934C1454.9 81.3066 1454.75 82.543 1454.75 83.9023V86.4863C1454.75 87.7402 1454.88 88.918 1455.14 90.0195C1455.41 91.1211 1455.81 92.0879 1456.35 92.9199C1456.89 93.752 1457.58 94.4082 1458.41 94.8887C1459.24 95.3574 1460.23 95.5918 1461.36 95.5918C1462.8 95.5918 1463.95 95.3633 1464.81 94.9062C1465.66 94.4492 1466.31 93.793 1466.74 92.9375C1467.19 92.082 1467.5 91.0566 1467.69 89.8613ZM1486.41 94.748V84.957C1486.41 84.207 1486.26 83.5566 1485.96 83.0059C1485.66 82.4434 1485.22 82.0098 1484.62 81.7051C1484.02 81.4004 1483.28 81.248 1482.4 81.248C1481.58 81.248 1480.86 81.3887 1480.24 81.6699C1479.63 81.9512 1479.15 82.3203 1478.8 82.7773C1478.46 83.2344 1478.29 83.7266 1478.29 84.2539H1475.04C1475.04 83.5742 1475.21 82.9004 1475.57 82.2324C1475.92 81.5645 1476.42 80.9609 1477.08 80.4219C1477.75 79.8711 1478.54 79.4375 1479.47 79.1211C1480.41 78.793 1481.45 78.6289 1482.6 78.6289C1483.98 78.6289 1485.2 78.8633 1486.25 79.332C1487.32 79.8008 1488.15 80.5098 1488.75 81.459C1489.36 82.3965 1489.66 83.5742 1489.66 84.9922V93.8516C1489.66 94.4844 1489.72 95.1582 1489.82 95.873C1489.94 96.5879 1490.11 97.2031 1490.33 97.7188V98H1486.94C1486.78 97.625 1486.65 97.127 1486.55 96.5059C1486.46 95.873 1486.41 95.2871 1486.41 94.748ZM1486.97 86.4688L1487.01 88.7539H1483.72C1482.8 88.7539 1481.97 88.8301 1481.24 88.9824C1480.52 89.123 1479.91 89.3398 1479.42 89.6328C1478.92 89.9258 1478.55 90.2949 1478.29 90.7402C1478.03 91.1738 1477.9 91.6836 1477.9 92.2695C1477.9 92.8672 1478.04 93.4121 1478.31 93.9043C1478.58 94.3965 1478.98 94.7891 1479.52 95.082C1480.07 95.3633 1480.75 95.5039 1481.54 95.5039C1482.54 95.5039 1483.42 95.293 1484.18 94.8711C1484.94 94.4492 1485.54 93.9336 1485.99 93.3242C1486.45 92.7148 1486.69 92.123 1486.73 91.5488L1488.12 93.1133C1488.04 93.6055 1487.81 94.1504 1487.45 94.748C1487.09 95.3457 1486.6 95.9199 1485.99 96.4707C1485.39 97.0098 1484.68 97.4609 1483.85 97.8242C1483.03 98.1758 1482.1 98.3516 1481.07 98.3516C1479.78 98.3516 1478.65 98.0996 1477.68 97.5957C1476.71 97.0918 1475.96 96.418 1475.43 95.5742C1474.9 94.7188 1474.63 93.7637 1474.63 92.709C1474.63 91.6895 1474.83 90.793 1475.23 90.0195C1475.63 89.2344 1476.21 88.584 1476.96 88.0684C1477.71 87.541 1478.61 87.1426 1479.66 86.873C1480.72 86.6035 1481.89 86.4688 1483.2 86.4688H1486.97ZM1502.74 78.9805V81.4766H1492.46V78.9805H1502.74ZM1495.94 74.3574H1499.19V93.2891C1499.19 93.9336 1499.29 94.4199 1499.49 94.748C1499.69 95.0762 1499.95 95.293 1500.26 95.3984C1500.58 95.5039 1500.92 95.5566 1501.28 95.5566C1501.55 95.5566 1501.83 95.5332 1502.13 95.4863C1502.43 95.4277 1502.66 95.3809 1502.81 95.3457L1502.83 98C1502.57 98.082 1502.23 98.1582 1501.81 98.2285C1501.4 98.3105 1500.9 98.3516 1500.32 98.3516C1499.52 98.3516 1498.79 98.1934 1498.12 97.877C1497.45 97.5605 1496.92 97.0332 1496.52 96.2949C1496.13 95.5449 1495.94 94.5371 1495.94 93.2715V74.3574ZM1514.45 98.3516C1513.12 98.3516 1511.92 98.1289 1510.85 97.6836C1509.78 97.2266 1508.86 96.5879 1508.09 95.7676C1507.32 94.9473 1506.74 93.9746 1506.33 92.8496C1505.92 91.7246 1505.71 90.4941 1505.71 89.1582V88.4199C1505.71 86.873 1505.94 85.4961 1506.4 84.2891C1506.86 83.0703 1507.48 82.0391 1508.26 81.1953C1509.05 80.3516 1509.94 79.7129 1510.93 79.2793C1511.93 78.8457 1512.96 78.6289 1514.03 78.6289C1515.39 78.6289 1516.56 78.8633 1517.54 79.332C1518.54 79.8008 1519.35 80.457 1519.99 81.3008C1520.62 82.1328 1521.09 83.1172 1521.39 84.2539C1521.7 85.3789 1521.85 86.6094 1521.85 87.9453V89.4043H1507.65V86.75H1518.6V86.5039C1518.55 85.6602 1518.38 84.8398 1518.07 84.043C1517.78 83.2461 1517.31 82.5898 1516.66 82.0742C1516.02 81.5586 1515.14 81.3008 1514.03 81.3008C1513.29 81.3008 1512.61 81.459 1511.99 81.7754C1511.37 82.0801 1510.83 82.5371 1510.39 83.1465C1509.94 83.7559 1509.6 84.5 1509.35 85.3789C1509.11 86.2578 1508.98 87.2715 1508.98 88.4199V89.1582C1508.98 90.0605 1509.11 90.9102 1509.35 91.707C1509.61 92.4922 1509.98 93.1836 1510.46 93.7812C1510.95 94.3789 1511.54 94.8477 1512.23 95.1875C1512.94 95.5273 1513.73 95.6973 1514.62 95.6973C1515.77 95.6973 1516.75 95.4629 1517.54 94.9941C1518.34 94.5254 1519.04 93.8984 1519.63 93.1133L1521.6 94.6777C1521.19 95.2988 1520.67 95.8906 1520.04 96.4531C1519.41 97.0156 1518.63 97.4727 1517.7 97.8242C1516.79 98.1758 1515.7 98.3516 1514.45 98.3516ZM1537.97 78.9805H1540.92V97.5957C1540.92 99.2715 1540.58 100.701 1539.9 101.885C1539.22 103.068 1538.27 103.965 1537.05 104.574C1535.85 105.195 1534.45 105.506 1532.87 105.506C1532.21 105.506 1531.44 105.4 1530.55 105.189C1529.67 104.99 1528.8 104.645 1527.95 104.152C1527.11 103.672 1526.4 103.021 1525.82 102.201L1527.53 100.268C1528.32 101.229 1529.16 101.896 1530.02 102.271C1530.9 102.646 1531.77 102.834 1532.62 102.834C1533.66 102.834 1534.55 102.641 1535.3 102.254C1536.05 101.867 1536.63 101.293 1537.04 100.531C1537.46 99.7812 1537.67 98.8555 1537.67 97.7539V83.1641L1537.97 78.9805ZM1524.87 88.7012V88.332C1524.87 86.8789 1525.04 85.5605 1525.38 84.377C1525.73 83.1816 1526.23 82.1562 1526.88 81.3008C1527.53 80.4453 1528.32 79.7891 1529.25 79.332C1530.18 78.8633 1531.22 78.6289 1532.38 78.6289C1533.57 78.6289 1534.62 78.8398 1535.51 79.2617C1536.41 79.6719 1537.17 80.2754 1537.79 81.0723C1538.43 81.8574 1538.92 82.8066 1539.29 83.9199C1539.65 85.0332 1539.9 86.293 1540.04 87.6992V89.3164C1539.91 90.7109 1539.66 91.9648 1539.29 93.0781C1538.92 94.1914 1538.43 95.1406 1537.79 95.9258C1537.17 96.7109 1536.41 97.3145 1535.51 97.7363C1534.61 98.1465 1533.55 98.3516 1532.34 98.3516C1531.21 98.3516 1530.18 98.1113 1529.25 97.6309C1528.34 97.1504 1527.55 96.4766 1526.89 95.6094C1526.24 94.7422 1525.73 93.7227 1525.38 92.5508C1525.04 91.3672 1524.87 90.084 1524.87 88.7012ZM1528.12 88.332V88.7012C1528.12 89.6504 1528.22 90.541 1528.41 91.373C1528.61 92.2051 1528.9 92.9375 1529.3 93.5703C1529.71 94.2031 1530.23 94.7012 1530.87 95.0645C1531.5 95.416 1532.26 95.5918 1533.13 95.5918C1534.21 95.5918 1535.1 95.3633 1535.81 94.9062C1536.51 94.4492 1537.07 93.8457 1537.48 93.0957C1537.9 92.3457 1538.23 91.5312 1538.46 90.6523V86.416C1538.33 85.7715 1538.13 85.1504 1537.86 84.5527C1537.61 83.9434 1537.27 83.4043 1536.84 82.9355C1536.43 82.4551 1535.92 82.0742 1535.31 81.793C1534.71 81.5117 1533.99 81.3711 1533.17 81.3711C1532.28 81.3711 1531.51 81.5586 1530.87 81.9336C1530.23 82.2969 1529.71 82.8008 1529.3 83.4453C1528.9 84.0781 1528.61 84.8164 1528.41 85.6602C1528.22 86.4922 1528.12 87.3828 1528.12 88.332ZM1545 88.7012V88.2969C1545 86.9258 1545.2 85.6543 1545.6 84.4824C1546 83.2988 1546.57 82.2734 1547.32 81.4062C1548.07 80.5273 1548.98 79.8477 1550.04 79.3672C1551.11 78.875 1552.31 78.6289 1553.63 78.6289C1554.97 78.6289 1556.17 78.875 1557.23 79.3672C1558.31 79.8477 1559.23 80.5273 1559.98 81.4062C1560.74 82.2734 1561.32 83.2988 1561.72 84.4824C1562.12 85.6543 1562.31 86.9258 1562.31 88.2969V88.7012C1562.31 90.0723 1562.12 91.3438 1561.72 92.5156C1561.32 93.6875 1560.74 94.7129 1559.98 95.5918C1559.23 96.459 1558.32 97.1387 1557.25 97.6309C1556.2 98.1113 1555 98.3516 1553.67 98.3516C1552.33 98.3516 1551.13 98.1113 1550.06 97.6309C1549 97.1387 1548.08 96.459 1547.32 95.5918C1546.57 94.7129 1546 93.6875 1545.6 92.5156C1545.2 91.3438 1545 90.0723 1545 88.7012ZM1548.25 88.2969V88.7012C1548.25 89.6504 1548.36 90.5469 1548.59 91.3906C1548.81 92.2227 1549.14 92.9609 1549.59 93.6055C1550.04 94.25 1550.61 94.7598 1551.29 95.1348C1551.97 95.498 1552.76 95.6797 1553.67 95.6797C1554.56 95.6797 1555.34 95.498 1556 95.1348C1556.68 94.7598 1557.25 94.25 1557.69 93.6055C1558.14 92.9609 1558.47 92.2227 1558.69 91.3906C1558.93 90.5469 1559.04 89.6504 1559.04 88.7012V88.2969C1559.04 87.3594 1558.93 86.4746 1558.69 85.6426C1558.47 84.7988 1558.13 84.0547 1557.67 83.4102C1557.23 82.7539 1556.67 82.2383 1555.99 81.8633C1555.32 81.4883 1554.53 81.3008 1553.63 81.3008C1552.74 81.3008 1551.96 81.4883 1551.28 81.8633C1550.61 82.2383 1550.04 82.7539 1549.59 83.4102C1549.14 84.0547 1548.81 84.7988 1548.59 85.6426C1548.36 86.4746 1548.25 87.3594 1548.25 88.2969ZM1569.64 81.9688V98H1566.39V78.9805H1569.56L1569.64 81.9688ZM1575.59 78.875L1575.57 81.8984C1575.3 81.8398 1575.04 81.8047 1574.79 81.793C1574.56 81.7695 1574.29 81.7578 1573.99 81.7578C1573.24 81.7578 1572.57 81.875 1572 82.1094C1571.43 82.3438 1570.94 82.6719 1570.54 83.0938C1570.14 83.5156 1569.83 84.0195 1569.59 84.6055C1569.37 85.1797 1569.22 85.8125 1569.15 86.5039L1568.24 87.0312C1568.24 85.8828 1568.35 84.8047 1568.57 83.7969C1568.81 82.7891 1569.16 81.8984 1569.64 81.125C1570.12 80.3398 1570.73 79.7305 1571.47 79.2969C1572.22 78.8516 1573.11 78.6289 1574.14 78.6289C1574.38 78.6289 1574.65 78.6582 1574.95 78.7168C1575.26 78.7637 1575.47 78.8164 1575.59 78.875ZM1584.25 96.0312L1589.54 78.9805H1593.02L1585.39 100.936C1585.22 101.404 1584.98 101.908 1584.69 102.447C1584.41 102.998 1584.05 103.52 1583.6 104.012C1583.16 104.504 1582.62 104.902 1581.98 105.207C1581.36 105.523 1580.62 105.682 1579.75 105.682C1579.49 105.682 1579.17 105.646 1578.77 105.576C1578.37 105.506 1578.09 105.447 1577.92 105.4L1577.91 102.764C1578 102.775 1578.15 102.787 1578.35 102.799C1578.56 102.822 1578.7 102.834 1578.79 102.834C1579.52 102.834 1580.15 102.734 1580.67 102.535C1581.18 102.348 1581.62 102.025 1581.97 101.568C1582.33 101.123 1582.64 100.508 1582.9 99.7227L1584.25 96.0312ZM1580.37 78.9805L1585.31 93.7461L1586.15 97.1738L1583.81 98.3691L1576.82 78.9805H1580.37ZM1599.72 85.8184L1597.12 85.1504L1598.4 72.4062H1611.53V75.4121H1601.16L1600.39 82.373C1600.86 82.1035 1601.45 81.8516 1602.16 81.6172C1602.89 81.3828 1603.72 81.2656 1604.66 81.2656C1605.84 81.2656 1606.9 81.4707 1607.84 81.8809C1608.78 82.2793 1609.58 82.8535 1610.23 83.6035C1610.9 84.3535 1611.41 85.2559 1611.76 86.3105C1612.11 87.3652 1612.29 88.543 1612.29 89.8438C1612.29 91.0742 1612.12 92.2051 1611.78 93.2363C1611.45 94.2676 1610.95 95.1699 1610.29 95.9434C1609.62 96.7051 1608.77 97.2969 1607.75 97.7188C1606.75 98.1406 1605.56 98.3516 1604.19 98.3516C1603.15 98.3516 1602.18 98.2109 1601.25 97.9297C1600.34 97.6367 1599.52 97.1973 1598.79 96.6113C1598.07 96.0137 1597.49 95.2754 1597.03 94.3965C1596.59 93.5059 1596.3 92.4629 1596.19 91.2676H1599.28C1599.42 92.2285 1599.7 93.0371 1600.12 93.6934C1600.55 94.3496 1601.1 94.8477 1601.78 95.1875C1602.47 95.5156 1603.27 95.6797 1604.19 95.6797C1604.96 95.6797 1605.64 95.5449 1606.24 95.2754C1606.84 95.0059 1607.34 94.6191 1607.75 94.1152C1608.16 93.6113 1608.47 93.002 1608.69 92.2871C1608.91 91.5723 1609.02 90.7695 1609.02 89.8789C1609.02 89.0703 1608.91 88.3203 1608.69 87.6289C1608.46 86.9375 1608.13 86.334 1607.68 85.8184C1607.25 85.3027 1606.72 84.9043 1606.08 84.623C1605.45 84.3301 1604.72 84.1836 1603.9 84.1836C1602.81 84.1836 1601.99 84.3301 1601.43 84.623C1600.88 84.916 1600.31 85.3145 1599.72 85.8184Z" fill="black"/>
<path d="M761.691 96.8613H765.066C764.891 98.4785 764.428 99.9258 763.678 101.203C762.928 102.48 761.867 103.494 760.496 104.244C759.125 104.982 757.414 105.352 755.363 105.352C753.863 105.352 752.498 105.07 751.268 104.508C750.049 103.945 749 103.148 748.121 102.117C747.242 101.074 746.562 99.8262 746.082 98.373C745.613 96.9082 745.379 95.2793 745.379 93.4863V90.9375C745.379 89.1445 745.613 87.5215 746.082 86.0684C746.562 84.6035 747.248 83.3496 748.139 82.3066C749.041 81.2637 750.125 80.4609 751.391 79.8984C752.656 79.3359 754.08 79.0547 755.662 79.0547C757.596 79.0547 759.23 79.418 760.566 80.1445C761.902 80.8711 762.939 81.8789 763.678 83.168C764.428 84.4453 764.891 85.9277 765.066 87.6152H761.691C761.527 86.4199 761.223 85.3945 760.777 84.5391C760.332 83.6719 759.699 83.0039 758.879 82.5352C758.059 82.0664 756.986 81.832 755.662 81.832C754.525 81.832 753.523 82.0488 752.656 82.4824C751.801 82.916 751.08 83.5312 750.494 84.3281C749.92 85.125 749.486 86.0801 749.193 87.1934C748.9 88.3066 748.754 89.543 748.754 90.9023V93.4863C748.754 94.7402 748.883 95.918 749.141 97.0195C749.41 98.1211 749.814 99.0879 750.354 99.9199C750.893 100.752 751.578 101.408 752.41 101.889C753.242 102.357 754.227 102.592 755.363 102.592C756.805 102.592 757.953 102.363 758.809 101.906C759.664 101.449 760.309 100.793 760.742 99.9375C761.188 99.082 761.504 98.0566 761.691 96.8613ZM780.412 101.748V91.957C780.412 91.207 780.26 90.5566 779.955 90.0059C779.662 89.4434 779.217 89.0098 778.619 88.7051C778.021 88.4004 777.283 88.248 776.404 88.248C775.584 88.248 774.863 88.3887 774.242 88.6699C773.633 88.9512 773.152 89.3203 772.801 89.7773C772.461 90.2344 772.291 90.7266 772.291 91.2539H769.039C769.039 90.5742 769.215 89.9004 769.566 89.2324C769.918 88.5645 770.422 87.9609 771.078 87.4219C771.746 86.8711 772.543 86.4375 773.469 86.1211C774.406 85.793 775.449 85.6289 776.598 85.6289C777.98 85.6289 779.199 85.8633 780.254 86.332C781.32 86.8008 782.152 87.5098 782.75 88.459C783.359 89.3965 783.664 90.5742 783.664 91.9922V100.852C783.664 101.484 783.717 102.158 783.822 102.873C783.939 103.588 784.109 104.203 784.332 104.719V105H780.939C780.775 104.625 780.646 104.127 780.553 103.506C780.459 102.873 780.412 102.287 780.412 101.748ZM780.975 93.4688L781.01 95.7539H777.723C776.797 95.7539 775.971 95.8301 775.244 95.9824C774.518 96.123 773.908 96.3398 773.416 96.6328C772.924 96.9258 772.549 97.2949 772.291 97.7402C772.033 98.1738 771.904 98.6836 771.904 99.2695C771.904 99.8672 772.039 100.412 772.309 100.904C772.578 101.396 772.982 101.789 773.521 102.082C774.072 102.363 774.746 102.504 775.543 102.504C776.539 102.504 777.418 102.293 778.18 101.871C778.941 101.449 779.545 100.934 779.99 100.324C780.447 99.7148 780.693 99.123 780.729 98.5488L782.117 100.113C782.035 100.605 781.812 101.15 781.449 101.748C781.086 102.346 780.6 102.92 779.99 103.471C779.393 104.01 778.678 104.461 777.846 104.824C777.025 105.176 776.1 105.352 775.068 105.352C773.779 105.352 772.648 105.1 771.676 104.596C770.715 104.092 769.965 103.418 769.426 102.574C768.898 101.719 768.635 100.764 768.635 99.709C768.635 98.6895 768.834 97.793 769.232 97.0195C769.631 96.2344 770.205 95.584 770.955 95.0684C771.705 94.541 772.607 94.1426 773.662 93.873C774.717 93.6035 775.895 93.4688 777.195 93.4688H780.975ZM796.742 85.9805V88.4766H786.459V85.9805H796.742ZM789.939 81.3574H793.191V100.289C793.191 100.934 793.291 101.42 793.49 101.748C793.689 102.076 793.947 102.293 794.264 102.398C794.58 102.504 794.92 102.557 795.283 102.557C795.553 102.557 795.834 102.533 796.127 102.486C796.432 102.428 796.66 102.381 796.812 102.346L796.83 105C796.572 105.082 796.232 105.158 795.811 105.229C795.4 105.311 794.902 105.352 794.316 105.352C793.52 105.352 792.787 105.193 792.119 104.877C791.451 104.561 790.918 104.033 790.52 103.295C790.133 102.545 789.939 101.537 789.939 100.271V81.3574ZM808.449 105.352C807.125 105.352 805.924 105.129 804.846 104.684C803.779 104.227 802.859 103.588 802.086 102.768C801.324 101.947 800.738 100.975 800.328 99.8496C799.918 98.7246 799.713 97.4941 799.713 96.1582V95.4199C799.713 93.873 799.941 92.4961 800.398 91.2891C800.855 90.0703 801.477 89.0391 802.262 88.1953C803.047 87.3516 803.938 86.7129 804.934 86.2793C805.93 85.8457 806.961 85.6289 808.027 85.6289C809.387 85.6289 810.559 85.8633 811.543 86.332C812.539 86.8008 813.354 87.457 813.986 88.3008C814.619 89.1328 815.088 90.1172 815.393 91.2539C815.697 92.3789 815.85 93.6094 815.85 94.9453V96.4043H801.646V93.75H812.598V93.5039C812.551 92.6602 812.375 91.8398 812.07 91.043C811.777 90.2461 811.309 89.5898 810.664 89.0742C810.02 88.5586 809.141 88.3008 808.027 88.3008C807.289 88.3008 806.609 88.459 805.988 88.7754C805.367 89.0801 804.834 89.5371 804.389 90.1465C803.943 90.7559 803.598 91.5 803.352 92.3789C803.105 93.2578 802.982 94.2715 802.982 95.4199V96.1582C802.982 97.0605 803.105 97.9102 803.352 98.707C803.609 99.4922 803.979 100.184 804.459 100.781C804.951 101.379 805.543 101.848 806.234 102.188C806.938 102.527 807.734 102.697 808.625 102.697C809.773 102.697 810.746 102.463 811.543 101.994C812.34 101.525 813.037 100.898 813.635 100.113L815.604 101.678C815.193 102.299 814.672 102.891 814.039 103.453C813.406 104.016 812.627 104.473 811.701 104.824C810.787 105.176 809.703 105.352 808.449 105.352ZM831.969 85.9805H834.922V104.596C834.922 106.271 834.582 107.701 833.902 108.885C833.223 110.068 832.273 110.965 831.055 111.574C829.848 112.195 828.453 112.506 826.871 112.506C826.215 112.506 825.441 112.4 824.551 112.189C823.672 111.99 822.805 111.645 821.949 111.152C821.105 110.672 820.396 110.021 819.822 109.201L821.527 107.268C822.324 108.229 823.156 108.896 824.023 109.271C824.902 109.646 825.77 109.834 826.625 109.834C827.656 109.834 828.547 109.641 829.297 109.254C830.047 108.867 830.627 108.293 831.037 107.531C831.459 106.781 831.67 105.855 831.67 104.754V90.1641L831.969 85.9805ZM818.873 95.7012V95.332C818.873 93.8789 819.043 92.5605 819.383 91.377C819.734 90.1816 820.232 89.1562 820.877 88.3008C821.533 87.4453 822.324 86.7891 823.25 86.332C824.176 85.8633 825.219 85.6289 826.379 85.6289C827.574 85.6289 828.617 85.8398 829.508 86.2617C830.41 86.6719 831.172 87.2754 831.793 88.0723C832.426 88.8574 832.924 89.8066 833.287 90.9199C833.65 92.0332 833.902 93.293 834.043 94.6992V96.3164C833.914 97.7109 833.662 98.9648 833.287 100.078C832.924 101.191 832.426 102.141 831.793 102.926C831.172 103.711 830.41 104.314 829.508 104.736C828.605 105.146 827.551 105.352 826.344 105.352C825.207 105.352 824.176 105.111 823.25 104.631C822.336 104.15 821.551 103.477 820.895 102.609C820.238 101.742 819.734 100.723 819.383 99.5508C819.043 98.3672 818.873 97.084 818.873 95.7012ZM822.125 95.332V95.7012C822.125 96.6504 822.219 97.541 822.406 98.373C822.605 99.2051 822.904 99.9375 823.303 100.57C823.713 101.203 824.234 101.701 824.867 102.064C825.5 102.416 826.256 102.592 827.135 102.592C828.213 102.592 829.104 102.363 829.807 101.906C830.51 101.449 831.066 100.846 831.477 100.096C831.898 99.3457 832.227 98.5312 832.461 97.6523V93.416C832.332 92.7715 832.133 92.1504 831.863 91.5527C831.605 90.9434 831.266 90.4043 830.844 89.9355C830.434 89.4551 829.924 89.0742 829.314 88.793C828.705 88.5117 827.99 88.3711 827.17 88.3711C826.279 88.3711 825.512 88.5586 824.867 88.9336C824.234 89.2969 823.713 89.8008 823.303 90.4453C822.904 91.0781 822.605 91.8164 822.406 92.6602C822.219 93.4922 822.125 94.3828 822.125 95.332ZM839 95.7012V95.2969C839 93.9258 839.199 92.6543 839.598 91.4824C839.996 90.2988 840.57 89.2734 841.32 88.4062C842.07 87.5273 842.979 86.8477 844.045 86.3672C845.111 85.875 846.307 85.6289 847.631 85.6289C848.967 85.6289 850.168 85.875 851.234 86.3672C852.312 86.8477 853.227 87.5273 853.977 88.4062C854.738 89.2734 855.318 90.2988 855.717 91.4824C856.115 92.6543 856.314 93.9258 856.314 95.2969V95.7012C856.314 97.0723 856.115 98.3438 855.717 99.5156C855.318 100.688 854.738 101.713 853.977 102.592C853.227 103.459 852.318 104.139 851.252 104.631C850.197 105.111 849.002 105.352 847.666 105.352C846.33 105.352 845.129 105.111 844.062 104.631C842.996 104.139 842.082 103.459 841.32 102.592C840.57 101.713 839.996 100.688 839.598 99.5156C839.199 98.3438 839 97.0723 839 95.7012ZM842.252 95.2969V95.7012C842.252 96.6504 842.363 97.5469 842.586 98.3906C842.809 99.2227 843.143 99.9609 843.588 100.605C844.045 101.25 844.613 101.76 845.293 102.135C845.973 102.498 846.764 102.68 847.666 102.68C848.557 102.68 849.336 102.498 850.004 102.135C850.684 101.76 851.246 101.25 851.691 100.605C852.137 99.9609 852.471 99.2227 852.693 98.3906C852.928 97.5469 853.045 96.6504 853.045 95.7012V95.2969C853.045 94.3594 852.928 93.4746 852.693 92.6426C852.471 91.7988 852.131 91.0547 851.674 90.4102C851.229 89.7539 850.666 89.2383 849.986 88.8633C849.318 88.4883 848.533 88.3008 847.631 88.3008C846.74 88.3008 845.955 88.4883 845.275 88.8633C844.607 89.2383 844.045 89.7539 843.588 90.4102C843.143 91.0547 842.809 91.7988 842.586 92.6426C842.363 93.4746 842.252 94.3594 842.252 95.2969ZM863.645 88.9688V105H860.393V85.9805H863.557L863.645 88.9688ZM869.586 85.875L869.568 88.8984C869.299 88.8398 869.041 88.8047 868.795 88.793C868.561 88.7695 868.291 88.7578 867.986 88.7578C867.236 88.7578 866.574 88.875 866 89.1094C865.426 89.3438 864.939 89.6719 864.541 90.0938C864.143 90.5156 863.826 91.0195 863.592 91.6055C863.369 92.1797 863.223 92.8125 863.152 93.5039L862.238 94.0312C862.238 92.8828 862.35 91.8047 862.572 90.7969C862.807 89.7891 863.164 88.8984 863.645 88.125C864.125 87.3398 864.734 86.7305 865.473 86.2969C866.223 85.8516 867.113 85.6289 868.145 85.6289C868.379 85.6289 868.648 85.6582 868.953 85.7168C869.258 85.7637 869.469 85.8164 869.586 85.875ZM878.252 103.031L883.543 85.9805H887.023L879.395 107.936C879.219 108.404 878.984 108.908 878.691 109.447C878.41 109.998 878.047 110.52 877.602 111.012C877.156 111.504 876.617 111.902 875.984 112.207C875.363 112.523 874.619 112.682 873.752 112.682C873.494 112.682 873.166 112.646 872.768 112.576C872.369 112.506 872.088 112.447 871.924 112.4L871.906 109.764C872 109.775 872.146 109.787 872.346 109.799C872.557 109.822 872.703 109.834 872.785 109.834C873.523 109.834 874.15 109.734 874.666 109.535C875.182 109.348 875.615 109.025 875.967 108.568C876.33 108.123 876.641 107.508 876.898 106.723L878.252 103.031ZM874.367 85.9805L879.307 100.746L880.15 104.174L877.812 105.369L870.816 85.9805H874.367ZM894.354 90.6035H896.674C897.811 90.6035 898.748 90.416 899.486 90.041C900.236 89.6543 900.793 89.1328 901.156 88.4766C901.531 87.8086 901.719 87.0586 901.719 86.2266C901.719 85.2422 901.555 84.416 901.227 83.748C900.898 83.0801 900.406 82.5762 899.75 82.2363C899.094 81.8965 898.262 81.7266 897.254 81.7266C896.34 81.7266 895.531 81.9082 894.828 82.2715C894.137 82.623 893.592 83.127 893.193 83.7832C892.807 84.4395 892.613 85.2129 892.613 86.1035H889.361C889.361 84.8027 889.689 83.6191 890.346 82.5527C891.002 81.4863 891.922 80.6367 893.105 80.0039C894.301 79.3711 895.684 79.0547 897.254 79.0547C898.801 79.0547 900.154 79.3301 901.314 79.8809C902.475 80.4199 903.377 81.2285 904.021 82.3066C904.666 83.373 904.988 84.7031 904.988 86.2969C904.988 86.9414 904.836 87.6328 904.531 88.3711C904.238 89.0977 903.775 89.7773 903.143 90.4102C902.521 91.043 901.713 91.5645 900.717 91.9746C899.721 92.373 898.525 92.5723 897.131 92.5723H894.354V90.6035ZM894.354 93.2754V91.3242H897.131C898.76 91.3242 900.107 91.5176 901.174 91.9043C902.24 92.291 903.078 92.8066 903.688 93.4512C904.309 94.0957 904.742 94.8047 904.988 95.5781C905.246 96.3398 905.375 97.1016 905.375 97.8633C905.375 99.0586 905.17 100.119 904.76 101.045C904.361 101.971 903.793 102.756 903.055 103.4C902.328 104.045 901.473 104.531 900.488 104.859C899.504 105.188 898.432 105.352 897.271 105.352C896.158 105.352 895.109 105.193 894.125 104.877C893.152 104.561 892.291 104.104 891.541 103.506C890.791 102.896 890.205 102.152 889.783 101.273C889.361 100.383 889.15 99.3691 889.15 98.2324H892.402C892.402 99.123 892.596 99.9023 892.982 100.57C893.381 101.238 893.943 101.76 894.67 102.135C895.408 102.498 896.275 102.68 897.271 102.68C898.268 102.68 899.123 102.51 899.838 102.17C900.564 101.818 901.121 101.291 901.508 100.588C901.906 99.8848 902.105 99 902.105 97.9336C902.105 96.8672 901.883 95.9941 901.438 95.3145C900.992 94.623 900.359 94.1133 899.539 93.7852C898.73 93.4453 897.775 93.2754 896.674 93.2754H894.354Z" fill="black"/>
</svg>
