<svg width="962" height="535" viewBox="0 0 962 535" fill="none" xmlns="http://www.w3.org/2000/svg">
<path d="M13.8906 51.5391V0H20.8867L47.957 40.4648V0H54.4961V51.5391H47.5L20.4297 11.0391V51.5391H13.8906Z" fill="white"/>
<path d="M89.6523 51.5391V46.0547C86.7461 50.2734 82.7969 52.3828 77.8047 52.3828C75.6016 52.3828 73.5391 51.9609 71.6172 51.1172C69.7188 50.2734 68.3008 49.2188 67.3633 47.9531C66.4492 46.6641 65.8047 45.0938 65.4297 43.2422C65.1719 42 65.043 40.0312 65.043 37.3359V14.2031H71.3711V34.9102C71.3711 38.2148 71.5 40.4414 71.7578 41.5898C72.1562 43.2539 73 44.5664 74.2891 45.5273C75.5781 46.4648 77.1719 46.9336 79.0703 46.9336C80.9688 46.9336 82.75 46.4531 84.4141 45.4922C86.0781 44.5078 87.25 43.1836 87.9297 41.5195C88.6328 39.832 88.9844 37.3945 88.9844 34.207V14.2031H95.3125V51.5391H89.6523Z" fill="white"/>
<path d="M119.078 45.8789L119.992 51.4688C118.211 51.8438 116.617 52.0312 115.211 52.0312C112.914 52.0312 111.133 51.668 109.867 50.9414C108.602 50.2148 107.711 49.2656 107.195 48.0938C106.68 46.8984 106.422 44.4023 106.422 40.6055V19.125H101.781V14.2031H106.422V4.95703L112.715 1.16016V14.2031H119.078V19.125H112.715V40.957C112.715 42.7617 112.82 43.9219 113.031 44.4375C113.266 44.9531 113.629 45.3633 114.121 45.668C114.637 45.9727 115.363 46.125 116.301 46.125C117.004 46.125 117.93 46.043 119.078 45.8789Z" fill="white"/>
<path d="M125.23 51.5391V14.2031H130.926V19.8633C132.379 17.2148 133.715 15.4688 134.934 14.625C136.176 13.7812 137.535 13.3594 139.012 13.3594C141.145 13.3594 143.312 14.0391 145.516 15.3984L143.336 21.2695C141.789 20.3555 140.242 19.8984 138.695 19.8984C137.312 19.8984 136.07 20.3203 134.969 21.1641C133.867 21.9844 133.082 23.1328 132.613 24.6094C131.91 26.8594 131.559 29.3203 131.559 31.9922V51.5391H125.23Z" fill="white"/>
<path d="M149.312 7.27734V0H155.641V7.27734H149.312ZM149.312 51.5391V14.2031H155.641V51.5391H149.312Z" fill="white"/>
<path d="M179.125 45.8789L180.039 51.4688C178.258 51.8438 176.664 52.0312 175.258 52.0312C172.961 52.0312 171.18 51.668 169.914 50.9414C168.648 50.2148 167.758 49.2656 167.242 48.0938C166.727 46.8984 166.469 44.4023 166.469 40.6055V19.125H161.828V14.2031H166.469V4.95703L172.762 1.16016V14.2031H179.125V19.125H172.762V40.957C172.762 42.7617 172.867 43.9219 173.078 44.4375C173.312 44.9531 173.676 45.3633 174.168 45.668C174.684 45.9727 175.41 46.125 176.348 46.125C177.051 46.125 177.977 46.043 179.125 45.8789Z" fill="white"/>
<path d="M185.383 7.27734V0H191.711V7.27734H185.383ZM185.383 51.5391V14.2031H191.711V51.5391H185.383Z" fill="white"/>
<path d="M199.023 32.8711C199.023 25.957 200.945 20.8359 204.789 17.5078C208 14.7422 211.914 13.3594 216.531 13.3594C221.664 13.3594 225.859 15.0469 229.117 18.4219C232.375 21.7734 234.004 26.4141 234.004 32.3438C234.004 37.1484 233.277 40.9336 231.824 43.6992C230.395 46.4414 228.297 48.5742 225.531 50.0977C222.789 51.6211 219.789 52.3828 216.531 52.3828C211.305 52.3828 207.074 50.707 203.84 47.3555C200.629 44.0039 199.023 39.1758 199.023 32.8711ZM205.527 32.8711C205.527 37.6523 206.57 41.2383 208.656 43.6289C210.742 45.9961 213.367 47.1797 216.531 47.1797C219.672 47.1797 222.285 45.9844 224.371 43.5938C226.457 41.2031 227.5 37.5586 227.5 32.6602C227.5 28.043 226.445 24.5508 224.336 22.1836C222.25 19.793 219.648 18.5977 216.531 18.5977C213.367 18.5977 210.742 19.7812 208.656 22.1484C206.57 24.5156 205.527 28.0898 205.527 32.8711Z" fill="white"/>
<path d="M241.457 51.5391V14.2031H247.152V19.5117C249.895 15.4102 253.855 13.3594 259.035 13.3594C261.285 13.3594 263.348 13.7695 265.223 14.5898C267.121 15.3867 268.539 16.4414 269.477 17.7539C270.414 19.0664 271.07 20.625 271.445 22.4297C271.68 23.6016 271.797 25.6523 271.797 28.582V51.5391H265.469V28.8281C265.469 26.25 265.223 24.3281 264.73 23.0625C264.238 21.7734 263.359 20.7539 262.094 20.0039C260.852 19.2305 259.387 18.8438 257.699 18.8438C255.004 18.8438 252.672 19.6992 250.703 21.4102C248.758 23.1211 247.785 26.3672 247.785 31.1484V51.5391H241.457Z" fill="white"/>
<path fill-rule="evenodd" clip-rule="evenodd" d="M961.406 116.539L8.40627 108.539L8.44824 103.539L961.448 111.539L961.406 116.539Z" fill="white"/>
<path d="M9.125 91.8594L10.5547 91.7344C10.6224 92.3073 10.7786 92.7786 11.0234 93.1484C11.2734 93.513 11.6589 93.8099 12.1797 94.0391C12.7005 94.263 13.2865 94.375 13.9375 94.375C14.5156 94.375 15.026 94.2891 15.4688 94.1172C15.9115 93.9453 16.2396 93.7109 16.4531 93.4141C16.6719 93.112 16.7812 92.7839 16.7812 92.4297C16.7812 92.0703 16.6771 91.7578 16.4688 91.4922C16.2604 91.2214 15.9167 90.9948 15.4375 90.8125C15.1302 90.6927 14.4505 90.5078 13.3984 90.2578C12.3464 90.0026 11.6094 89.763 11.1875 89.5391C10.6406 89.2526 10.2318 88.8984 9.96094 88.4766C9.69531 88.0495 9.5625 87.5729 9.5625 87.0469C9.5625 86.4688 9.72656 85.9297 10.0547 85.4297C10.3828 84.9245 10.862 84.5417 11.4922 84.2812C12.1224 84.0208 12.8229 83.8906 13.5938 83.8906C14.4427 83.8906 15.1901 84.0286 15.8359 84.3047C16.487 84.5755 16.987 84.9766 17.3359 85.5078C17.6849 86.0391 17.8724 86.6406 17.8984 87.3125L16.4453 87.4219C16.3672 86.6979 16.1016 86.151 15.6484 85.7812C15.2005 85.4115 14.5365 85.2266 13.6562 85.2266C12.7396 85.2266 12.0703 85.3958 11.6484 85.7344C11.2318 86.0677 11.0234 86.4714 11.0234 86.9453C11.0234 87.3568 11.1719 87.6953 11.4688 87.9609C11.7604 88.2266 12.5208 88.5 13.75 88.7812C14.9844 89.0573 15.8307 89.2995 16.2891 89.5078C16.9557 89.8151 17.4479 90.2057 17.7656 90.6797C18.0833 91.1484 18.2422 91.6901 18.2422 92.3047C18.2422 92.9141 18.0677 93.4896 17.7188 94.0312C17.3698 94.5677 16.8672 94.987 16.2109 95.2891C15.5599 95.5859 14.8255 95.7344 14.0078 95.7344C12.9714 95.7344 12.1016 95.5833 11.3984 95.2812C10.7005 94.9792 10.151 94.526 9.75 93.9219C9.35417 93.3125 9.14583 92.625 9.125 91.8594Z" fill="white"/>
<path d="M25.8125 92.8672L27.2656 93.0469C27.0365 93.8958 26.612 94.5547 25.9922 95.0234C25.3724 95.4922 24.5807 95.7266 23.6172 95.7266C22.4036 95.7266 21.4401 95.3542 20.7266 94.6094C20.0182 93.8594 19.6641 92.8099 19.6641 91.4609C19.6641 90.0651 20.0234 88.9818 20.7422 88.2109C21.4609 87.4401 22.3932 87.0547 23.5391 87.0547C24.6484 87.0547 25.5547 87.4323 26.2578 88.1875C26.9609 88.9427 27.3125 90.0052 27.3125 91.375C27.3125 91.4583 27.3099 91.5833 27.3047 91.75H21.1172C21.1693 92.6615 21.4271 93.3594 21.8906 93.8438C22.3542 94.3281 22.9323 94.5703 23.625 94.5703C24.1406 94.5703 24.5807 94.4349 24.9453 94.1641C25.3099 93.8932 25.599 93.4609 25.8125 92.8672ZM21.1953 90.5938H25.8281C25.7656 89.8958 25.5885 89.3724 25.2969 89.0234C24.849 88.4818 24.2682 88.2109 23.5547 88.2109C22.9089 88.2109 22.3646 88.4271 21.9219 88.8594C21.4844 89.2917 21.2422 89.8698 21.1953 90.5938Z" fill="white"/>
<path d="M29.0234 95.5391V87.2422H30.2891V88.5C30.612 87.9115 30.9089 87.5234 31.1797 87.3359C31.4557 87.1484 31.7578 87.0547 32.0859 87.0547C32.5599 87.0547 33.0417 87.2057 33.5312 87.5078L33.0469 88.8125C32.7031 88.6094 32.3594 88.5078 32.0156 88.5078C31.7083 88.5078 31.4323 88.6016 31.1875 88.7891C30.9427 88.9714 30.7682 89.2266 30.6641 89.5547C30.5078 90.0547 30.4297 90.6016 30.4297 91.1953V95.5391H29.0234Z" fill="white"/>
<path d="M36.6719 95.5391L33.5156 87.2422H35L36.7812 92.2109C36.974 92.7474 37.151 93.3047 37.3125 93.8828C37.4375 93.4453 37.612 92.9193 37.8359 92.3047L39.6797 87.2422H41.125L37.9844 95.5391H36.6719Z" fill="white"/>
<path d="M42.375 85.7031V84.0859H43.7812V85.7031H42.375ZM42.375 95.5391V87.2422H43.7812V95.5391H42.375Z" fill="white"/>
<path d="M45.9297 95.5391V87.2422H47.1953V88.4219C47.8047 87.5104 48.6849 87.0547 49.8359 87.0547C50.3359 87.0547 50.7943 87.1458 51.2109 87.3281C51.6328 87.5052 51.9479 87.7396 52.1562 88.0312C52.3646 88.3229 52.5104 88.6693 52.5938 89.0703C52.6458 89.3307 52.6719 89.7865 52.6719 90.4375V95.5391H51.2656V90.4922C51.2656 89.9193 51.2109 89.4922 51.1016 89.2109C50.9922 88.9245 50.7969 88.6979 50.5156 88.5312C50.2396 88.3594 49.9141 88.2734 49.5391 88.2734C48.9401 88.2734 48.4219 88.4635 47.9844 88.8438C47.5521 89.224 47.3359 89.9453 47.3359 91.0078V95.5391H45.9297Z" fill="white"/>
<path d="M54.5781 96.2266L55.9453 96.4297C56.0026 96.8516 56.1615 97.1589 56.4219 97.3516C56.7708 97.612 57.2474 97.7422 57.8516 97.7422C58.5026 97.7422 59.0052 97.612 59.3594 97.3516C59.7135 97.0911 59.9531 96.7266 60.0781 96.2578C60.151 95.9714 60.1849 95.3698 60.1797 94.4531C59.5651 95.1771 58.7995 95.5391 57.8828 95.5391C56.7422 95.5391 55.8594 95.1276 55.2344 94.3047C54.6094 93.4818 54.2969 92.4948 54.2969 91.3438C54.2969 90.5521 54.4401 89.8229 54.7266 89.1562C55.013 88.4844 55.4271 87.9661 55.9688 87.6016C56.5156 87.237 57.1562 87.0547 57.8906 87.0547C58.8698 87.0547 59.6771 87.4505 60.3125 88.2422V87.2422H61.6094V94.4141C61.6094 95.7057 61.4766 96.6198 61.2109 97.1562C60.9505 97.6979 60.5339 98.125 59.9609 98.4375C59.3932 98.75 58.6927 98.9062 57.8594 98.9062C56.8698 98.9062 56.0703 98.6823 55.4609 98.2344C54.8516 97.7917 54.5573 97.1224 54.5781 96.2266ZM55.7422 91.2422C55.7422 92.3307 55.9583 93.125 56.3906 93.625C56.8229 94.125 57.3646 94.375 58.0156 94.375C58.6615 94.375 59.2031 94.1276 59.6406 93.6328C60.0781 93.1328 60.2969 92.3516 60.2969 91.2891C60.2969 90.2734 60.0703 89.5078 59.6172 88.9922C59.1693 88.4766 58.6276 88.2188 57.9922 88.2188C57.3672 88.2188 56.8359 88.474 56.3984 88.9844C55.9609 89.4896 55.7422 90.2422 55.7422 91.2422Z" fill="white"/>
<path d="M67.6328 93.0625L69.0234 92.8438C69.1016 93.401 69.3177 93.8281 69.6719 94.125C70.0312 94.4219 70.5312 94.5703 71.1719 94.5703C71.8177 94.5703 72.2969 94.4401 72.6094 94.1797C72.9219 93.9141 73.0781 93.6042 73.0781 93.25C73.0781 92.9323 72.9401 92.6823 72.6641 92.5C72.4714 92.375 71.9922 92.2161 71.2266 92.0234C70.1953 91.763 69.4792 91.5391 69.0781 91.3516C68.6823 91.1589 68.3802 90.8958 68.1719 90.5625C67.9688 90.224 67.8672 89.8516 67.8672 89.4453C67.8672 89.0755 67.9505 88.7344 68.1172 88.4219C68.2891 88.1042 68.5208 87.8411 68.8125 87.6328C69.0312 87.4714 69.3281 87.3359 69.7031 87.2266C70.0833 87.112 70.4896 87.0547 70.9219 87.0547C71.5729 87.0547 72.1432 87.1484 72.6328 87.3359C73.1276 87.5234 73.4922 87.7786 73.7266 88.1016C73.9609 88.4193 74.1224 88.8464 74.2109 89.3828L72.8359 89.5703C72.7734 89.1432 72.5911 88.8099 72.2891 88.5703C71.9922 88.3307 71.5703 88.2109 71.0234 88.2109C70.3776 88.2109 69.9167 88.3177 69.6406 88.5312C69.3646 88.7448 69.2266 88.9948 69.2266 89.2812C69.2266 89.4635 69.2839 89.6276 69.3984 89.7734C69.513 89.9245 69.6927 90.0495 69.9375 90.1484C70.0781 90.2005 70.4922 90.3203 71.1797 90.5078C72.1745 90.7734 72.8672 90.9922 73.2578 91.1641C73.6536 91.3307 73.9635 91.5755 74.1875 91.8984C74.4115 92.2214 74.5234 92.6224 74.5234 93.1016C74.5234 93.5703 74.3854 94.013 74.1094 94.4297C73.8385 94.8411 73.4453 95.1615 72.9297 95.3906C72.4141 95.6146 71.8307 95.7266 71.1797 95.7266C70.1016 95.7266 69.2786 95.5026 68.7109 95.0547C68.1484 94.6068 67.7891 93.9427 67.6328 93.0625Z" fill="white"/>
<path d="M76.2031 85.7031V84.0859H77.6094V85.7031H76.2031ZM76.2031 95.5391V87.2422H77.6094V95.5391H76.2031Z" fill="white"/>
<path d="M79.0156 95.5391V94.3984L84.2969 88.3359C83.6979 88.3672 83.1693 88.3828 82.7109 88.3828H79.3281V87.2422H86.1094V88.1719L81.6172 93.4375L80.75 94.3984C81.3802 94.3516 81.9714 94.3281 82.5234 94.3281H86.3594V95.5391H79.0156Z" fill="white"/>
<path d="M93.4375 92.8672L94.8906 93.0469C94.6615 93.8958 94.237 94.5547 93.6172 95.0234C92.9974 95.4922 92.2057 95.7266 91.2422 95.7266C90.0286 95.7266 89.0651 95.3542 88.3516 94.6094C87.6432 93.8594 87.2891 92.8099 87.2891 91.4609C87.2891 90.0651 87.6484 88.9818 88.3672 88.2109C89.0859 87.4401 90.0182 87.0547 91.1641 87.0547C92.2734 87.0547 93.1797 87.4323 93.8828 88.1875C94.5859 88.9427 94.9375 90.0052 94.9375 91.375C94.9375 91.4583 94.9349 91.5833 94.9297 91.75H88.7422C88.7943 92.6615 89.0521 93.3594 89.5156 93.8438C89.9792 94.3281 90.5573 94.5703 91.25 94.5703C91.7656 94.5703 92.2057 94.4349 92.5703 94.1641C92.9349 93.8932 93.224 93.4609 93.4375 92.8672ZM88.8203 90.5938H93.4531C93.3906 89.8958 93.2135 89.3724 92.9219 89.0234C92.474 88.4818 91.8932 88.2109 91.1797 88.2109C90.5339 88.2109 89.9896 88.4271 89.5469 88.8594C89.1094 89.2917 88.8672 89.8698 88.8203 90.5938Z" fill="white"/>
<path d="M106.023 95.5391H104.617V86.5781C104.279 86.901 103.833 87.224 103.281 87.5469C102.734 87.8698 102.242 88.112 101.805 88.2734V86.9141C102.591 86.5443 103.279 86.0964 103.867 85.5703C104.456 85.0443 104.872 84.5339 105.117 84.0391H106.023V95.5391Z" fill="white"/>
<path d="M114.477 98.7188V87.2422H115.758V88.3203C116.06 87.8984 116.401 87.5833 116.781 87.375C117.161 87.1615 117.622 87.0547 118.164 87.0547C118.872 87.0547 119.497 87.237 120.039 87.6016C120.581 87.9661 120.99 88.4818 121.266 89.1484C121.542 89.8099 121.68 90.5365 121.68 91.3281C121.68 92.1771 121.526 92.9427 121.219 93.625C120.917 94.3021 120.474 94.8229 119.891 95.1875C119.312 95.5469 118.703 95.7266 118.062 95.7266C117.594 95.7266 117.172 95.6276 116.797 95.4297C116.427 95.2318 116.122 94.9818 115.883 94.6797V98.7188H114.477ZM115.75 91.4375C115.75 92.5052 115.966 93.2943 116.398 93.8047C116.831 94.3151 117.354 94.5703 117.969 94.5703C118.594 94.5703 119.128 94.3073 119.57 93.7812C120.018 93.25 120.242 92.4297 120.242 91.3203C120.242 90.263 120.023 89.4714 119.586 88.9453C119.154 88.4193 118.635 88.1562 118.031 88.1562C117.432 88.1562 116.901 88.4375 116.438 89C115.979 89.5573 115.75 90.3698 115.75 91.4375Z" fill="white"/>
<path d="M128.797 94.5156C128.276 94.9583 127.773 95.2708 127.289 95.4531C126.81 95.6354 126.294 95.7266 125.742 95.7266C124.831 95.7266 124.13 95.5052 123.641 95.0625C123.151 94.6146 122.906 94.0443 122.906 93.3516C122.906 92.9453 122.997 92.5755 123.18 92.2422C123.367 91.9036 123.609 91.6328 123.906 91.4297C124.208 91.2266 124.547 91.0729 124.922 90.9688C125.198 90.8958 125.615 90.8255 126.172 90.7578C127.307 90.6224 128.143 90.4609 128.68 90.2734C128.685 90.0807 128.688 89.9583 128.688 89.9062C128.688 89.3333 128.555 88.9297 128.289 88.6953C127.93 88.3776 127.396 88.2188 126.688 88.2188C126.026 88.2188 125.536 88.3359 125.219 88.5703C124.906 88.7995 124.674 89.2083 124.523 89.7969L123.148 89.6094C123.273 89.0208 123.479 88.5469 123.766 88.1875C124.052 87.8229 124.466 87.5443 125.008 87.3516C125.549 87.1536 126.177 87.0547 126.891 87.0547C127.599 87.0547 128.174 87.138 128.617 87.3047C129.06 87.4714 129.385 87.6823 129.594 87.9375C129.802 88.1875 129.948 88.5052 130.031 88.8906C130.078 89.1302 130.102 89.5625 130.102 90.1875V92.0625C130.102 93.3698 130.13 94.1979 130.188 94.5469C130.25 94.8906 130.37 95.2214 130.547 95.5391H129.078C128.932 95.2474 128.839 94.9062 128.797 94.5156ZM128.68 91.375C128.169 91.5833 127.404 91.7604 126.383 91.9062C125.805 91.9896 125.396 92.0833 125.156 92.1875C124.917 92.2917 124.732 92.4453 124.602 92.6484C124.471 92.8464 124.406 93.0677 124.406 93.3125C124.406 93.6875 124.547 94 124.828 94.25C125.115 94.5 125.531 94.625 126.078 94.625C126.62 94.625 127.102 94.5078 127.523 94.2734C127.945 94.0339 128.255 93.7083 128.453 93.2969C128.604 92.9792 128.68 92.5104 128.68 91.8906V91.375Z" fill="white"/>
<path d="M137.703 92.5L139.086 92.6797C138.935 93.6328 138.547 94.3802 137.922 94.9219C137.302 95.4583 136.539 95.7266 135.633 95.7266C134.497 95.7266 133.583 95.3568 132.891 94.6172C132.203 93.8724 131.859 92.8073 131.859 91.4219C131.859 90.526 132.008 89.7422 132.305 89.0703C132.602 88.3984 133.052 87.8958 133.656 87.5625C134.266 87.224 134.927 87.0547 135.641 87.0547C136.542 87.0547 137.279 87.2839 137.852 87.7422C138.424 88.1953 138.792 88.8411 138.953 89.6797L137.586 89.8906C137.456 89.3333 137.224 88.9141 136.891 88.6328C136.562 88.3516 136.164 88.2109 135.695 88.2109C134.987 88.2109 134.411 88.4661 133.969 88.9766C133.526 89.4818 133.305 90.2839 133.305 91.3828C133.305 92.4974 133.518 93.3073 133.945 93.8125C134.372 94.3177 134.93 94.5703 135.617 94.5703C136.169 94.5703 136.63 94.401 137 94.0625C137.37 93.724 137.604 93.2031 137.703 92.5Z" fill="white"/>
<path d="M140.297 95.5391V84.0859H141.703V90.6172L145.031 87.2422H146.852L143.68 90.3203L147.172 95.5391H145.438L142.695 91.2969L141.703 92.25V95.5391H140.297Z" fill="white"/>
<path d="M153.703 94.5156C153.182 94.9583 152.68 95.2708 152.195 95.4531C151.716 95.6354 151.201 95.7266 150.648 95.7266C149.737 95.7266 149.036 95.5052 148.547 95.0625C148.057 94.6146 147.812 94.0443 147.812 93.3516C147.812 92.9453 147.904 92.5755 148.086 92.2422C148.273 91.9036 148.516 91.6328 148.812 91.4297C149.115 91.2266 149.453 91.0729 149.828 90.9688C150.104 90.8958 150.521 90.8255 151.078 90.7578C152.214 90.6224 153.049 90.4609 153.586 90.2734C153.591 90.0807 153.594 89.9583 153.594 89.9062C153.594 89.3333 153.461 88.9297 153.195 88.6953C152.836 88.3776 152.302 88.2188 151.594 88.2188C150.932 88.2188 150.443 88.3359 150.125 88.5703C149.812 88.7995 149.581 89.2083 149.43 89.7969L148.055 89.6094C148.18 89.0208 148.385 88.5469 148.672 88.1875C148.958 87.8229 149.372 87.5443 149.914 87.3516C150.456 87.1536 151.083 87.0547 151.797 87.0547C152.505 87.0547 153.081 87.138 153.523 87.3047C153.966 87.4714 154.292 87.6823 154.5 87.9375C154.708 88.1875 154.854 88.5052 154.938 88.8906C154.984 89.1302 155.008 89.5625 155.008 90.1875V92.0625C155.008 93.3698 155.036 94.1979 155.094 94.5469C155.156 94.8906 155.276 95.2214 155.453 95.5391H153.984C153.839 95.2474 153.745 94.9062 153.703 94.5156ZM153.586 91.375C153.076 91.5833 152.31 91.7604 151.289 91.9062C150.711 91.9896 150.302 92.0833 150.062 92.1875C149.823 92.2917 149.638 92.4453 149.508 92.6484C149.378 92.8464 149.312 93.0677 149.312 93.3125C149.312 93.6875 149.453 94 149.734 94.25C150.021 94.5 150.438 94.625 150.984 94.625C151.526 94.625 152.008 94.5078 152.43 94.2734C152.852 94.0339 153.161 93.7083 153.359 93.2969C153.51 92.9792 153.586 92.5104 153.586 91.8906V91.375Z" fill="white"/>
<path d="M156.938 96.2266L158.305 96.4297C158.362 96.8516 158.521 97.1589 158.781 97.3516C159.13 97.612 159.607 97.7422 160.211 97.7422C160.862 97.7422 161.365 97.612 161.719 97.3516C162.073 97.0911 162.312 96.7266 162.438 96.2578C162.51 95.9714 162.544 95.3698 162.539 94.4531C161.924 95.1771 161.159 95.5391 160.242 95.5391C159.102 95.5391 158.219 95.1276 157.594 94.3047C156.969 93.4818 156.656 92.4948 156.656 91.3438C156.656 90.5521 156.799 89.8229 157.086 89.1562C157.372 88.4844 157.786 87.9661 158.328 87.6016C158.875 87.237 159.516 87.0547 160.25 87.0547C161.229 87.0547 162.036 87.4505 162.672 88.2422V87.2422H163.969V94.4141C163.969 95.7057 163.836 96.6198 163.57 97.1562C163.31 97.6979 162.893 98.125 162.32 98.4375C161.753 98.75 161.052 98.9062 160.219 98.9062C159.229 98.9062 158.43 98.6823 157.82 98.2344C157.211 97.7917 156.917 97.1224 156.938 96.2266ZM158.102 91.2422C158.102 92.3307 158.318 93.125 158.75 93.625C159.182 94.125 159.724 94.375 160.375 94.375C161.021 94.375 161.562 94.1276 162 93.6328C162.438 93.1328 162.656 92.3516 162.656 91.2891C162.656 90.2734 162.43 89.5078 161.977 88.9922C161.529 88.4766 160.987 88.2188 160.352 88.2188C159.727 88.2188 159.195 88.474 158.758 88.9844C158.32 89.4896 158.102 90.2422 158.102 91.2422Z" fill="white"/>
<path d="M171.781 92.8672L173.234 93.0469C173.005 93.8958 172.581 94.5547 171.961 95.0234C171.341 95.4922 170.549 95.7266 169.586 95.7266C168.372 95.7266 167.409 95.3542 166.695 94.6094C165.987 93.8594 165.633 92.8099 165.633 91.4609C165.633 90.0651 165.992 88.9818 166.711 88.2109C167.43 87.4401 168.362 87.0547 169.508 87.0547C170.617 87.0547 171.523 87.4323 172.227 88.1875C172.93 88.9427 173.281 90.0052 173.281 91.375C173.281 91.4583 173.279 91.5833 173.273 91.75H167.086C167.138 92.6615 167.396 93.3594 167.859 93.8438C168.323 94.3281 168.901 94.5703 169.594 94.5703C170.109 94.5703 170.549 94.4349 170.914 94.1641C171.279 93.8932 171.568 93.4609 171.781 92.8672ZM167.164 90.5938H171.797C171.734 89.8958 171.557 89.3724 171.266 89.0234C170.818 88.4818 170.237 88.2109 169.523 88.2109C168.878 88.2109 168.333 88.4271 167.891 88.8594C167.453 89.2917 167.211 89.8698 167.164 90.5938Z" fill="white"/>
<path d="M22.2188 227.508L25.25 228.273C24.6146 230.763 23.4688 232.664 21.8125 233.977C20.1667 235.279 18.151 235.93 15.7656 235.93C13.2969 235.93 11.2865 235.43 9.73438 234.43C8.19271 233.419 7.01562 231.961 6.20312 230.055C5.40104 228.148 5 226.102 5 223.914C5 221.529 5.45312 219.451 6.35938 217.68C7.27604 215.898 8.57292 214.549 10.25 213.633C11.9375 212.706 13.7917 212.242 15.8125 212.242C18.1042 212.242 20.0312 212.826 21.5938 213.992C23.1562 215.159 24.2448 216.799 24.8594 218.914L21.875 219.617C21.3438 217.951 20.5729 216.737 19.5625 215.977C18.5521 215.216 17.2812 214.836 15.75 214.836C13.9896 214.836 12.5156 215.258 11.3281 216.102C10.151 216.945 9.32292 218.081 8.84375 219.508C8.36458 220.924 8.125 222.388 8.125 223.898C8.125 225.846 8.40625 227.549 8.96875 229.008C9.54167 230.456 10.4271 231.539 11.625 232.258C12.8229 232.977 14.1198 233.336 15.5156 233.336C17.2135 233.336 18.651 232.846 19.8281 231.867C21.0052 230.888 21.8021 229.435 22.2188 227.508Z" fill="white"/>
<path d="M39.4688 233.492C38.4271 234.378 37.4219 235.003 36.4531 235.367C35.4948 235.732 34.4635 235.914 33.3594 235.914C31.5365 235.914 30.1354 235.471 29.1562 234.586C28.1771 233.69 27.6875 232.549 27.6875 231.164C27.6875 230.352 27.8698 229.612 28.2344 228.945C28.6094 228.268 29.0938 227.727 29.6875 227.32C30.2917 226.914 30.9688 226.607 31.7188 226.398C32.2708 226.253 33.1042 226.112 34.2188 225.977C36.4896 225.706 38.1615 225.383 39.2344 225.008C39.2448 224.622 39.25 224.378 39.25 224.273C39.25 223.128 38.9844 222.32 38.4531 221.852C37.7344 221.216 36.6667 220.898 35.25 220.898C33.9271 220.898 32.9479 221.133 32.3125 221.602C31.6875 222.06 31.224 222.878 30.9219 224.055L28.1719 223.68C28.4219 222.503 28.8333 221.555 29.4062 220.836C29.9792 220.107 30.8073 219.549 31.8906 219.164C32.974 218.768 34.2292 218.57 35.6562 218.57C37.0729 218.57 38.224 218.737 39.1094 219.07C39.9948 219.404 40.6458 219.826 41.0625 220.336C41.4792 220.836 41.7708 221.471 41.9375 222.242C42.0312 222.721 42.0781 223.586 42.0781 224.836V228.586C42.0781 231.201 42.1354 232.857 42.25 233.555C42.375 234.242 42.6146 234.904 42.9688 235.539H40.0312C39.7396 234.956 39.5521 234.273 39.4688 233.492ZM39.2344 227.211C38.2135 227.628 36.6823 227.982 34.6406 228.273C33.4844 228.44 32.6667 228.628 32.1875 228.836C31.7083 229.044 31.3385 229.352 31.0781 229.758C30.8177 230.154 30.6875 230.596 30.6875 231.086C30.6875 231.836 30.9688 232.461 31.5312 232.961C32.1042 233.461 32.9375 233.711 34.0312 233.711C35.1146 233.711 36.0781 233.477 36.9219 233.008C37.7656 232.529 38.3854 231.878 38.7812 231.055C39.0833 230.419 39.2344 229.482 39.2344 228.242V227.211Z" fill="white"/>
<path d="M46.3906 235.539V212.633H49.2031V235.539H46.3906Z" fill="white"/>
<path d="M52.5312 227.242C52.5312 224.169 53.3854 221.893 55.0938 220.414C56.5208 219.185 58.2604 218.57 60.3125 218.57C62.5938 218.57 64.4583 219.32 65.9062 220.82C67.3542 222.31 68.0781 224.372 68.0781 227.008C68.0781 229.143 67.7552 230.826 67.1094 232.055C66.474 233.273 65.5417 234.221 64.3125 234.898C63.0938 235.576 61.7604 235.914 60.3125 235.914C57.9896 235.914 56.1094 235.169 54.6719 233.68C53.2448 232.19 52.5312 230.044 52.5312 227.242ZM55.4219 227.242C55.4219 229.367 55.8854 230.961 56.8125 232.023C57.7396 233.076 58.9062 233.602 60.3125 233.602C61.7083 233.602 62.8698 233.07 63.7969 232.008C64.724 230.945 65.1875 229.326 65.1875 227.148C65.1875 225.096 64.7188 223.544 63.7812 222.492C62.8542 221.43 61.6979 220.898 60.3125 220.898C58.9062 220.898 57.7396 221.424 56.8125 222.477C55.8854 223.529 55.4219 225.117 55.4219 227.242Z" fill="white"/>
<path d="M71.3594 235.539V218.945H73.8906V221.461C74.5365 220.284 75.1302 219.508 75.6719 219.133C76.224 218.758 76.8281 218.57 77.4844 218.57C78.4323 218.57 79.3958 218.872 80.375 219.477L79.4062 222.086C78.7188 221.68 78.0312 221.477 77.3438 221.477C76.7292 221.477 76.1771 221.664 75.6875 222.039C75.1979 222.404 74.849 222.914 74.6406 223.57C74.3281 224.57 74.1719 225.664 74.1719 226.852V235.539H71.3594Z" fill="white"/>
<path d="M82.0625 215.867V212.633H84.875V215.867H82.0625ZM82.0625 235.539V218.945H84.875V235.539H82.0625Z" fill="white"/>
<path d="M100.531 230.195L103.438 230.555C102.979 232.253 102.13 233.57 100.891 234.508C99.651 235.445 98.0677 235.914 96.1406 235.914C93.7135 235.914 91.7865 235.169 90.3594 233.68C88.9427 232.18 88.2344 230.081 88.2344 227.383C88.2344 224.591 88.9531 222.424 90.3906 220.883C91.8281 219.341 93.6927 218.57 95.9844 218.57C98.2031 218.57 100.016 219.326 101.422 220.836C102.828 222.346 103.531 224.471 103.531 227.211C103.531 227.378 103.526 227.628 103.516 227.961H91.1406C91.2448 229.784 91.7604 231.18 92.6875 232.148C93.6146 233.117 94.7708 233.602 96.1562 233.602C97.1875 233.602 98.0677 233.331 98.7969 232.789C99.526 232.247 100.104 231.383 100.531 230.195ZM91.2969 225.648H100.562C100.438 224.253 100.083 223.206 99.5 222.508C98.6042 221.424 97.4427 220.883 96.0156 220.883C94.724 220.883 93.6354 221.315 92.75 222.18C91.875 223.044 91.3906 224.201 91.2969 225.648Z" fill="white"/>
<path d="M105.859 230.586L108.641 230.148C108.797 231.263 109.229 232.117 109.938 232.711C110.656 233.305 111.656 233.602 112.938 233.602C114.229 233.602 115.188 233.341 115.812 232.82C116.438 232.289 116.75 231.669 116.75 230.961C116.75 230.326 116.474 229.826 115.922 229.461C115.536 229.211 114.578 228.893 113.047 228.508C110.984 227.987 109.552 227.539 108.75 227.164C107.958 226.779 107.354 226.253 106.938 225.586C106.531 224.909 106.328 224.164 106.328 223.352C106.328 222.612 106.495 221.93 106.828 221.305C107.172 220.669 107.635 220.143 108.219 219.727C108.656 219.404 109.25 219.133 110 218.914C110.76 218.685 111.573 218.57 112.438 218.57C113.74 218.57 114.88 218.758 115.859 219.133C116.849 219.508 117.578 220.018 118.047 220.664C118.516 221.299 118.839 222.154 119.016 223.227L116.266 223.602C116.141 222.747 115.776 222.081 115.172 221.602C114.578 221.122 113.734 220.883 112.641 220.883C111.349 220.883 110.427 221.096 109.875 221.523C109.323 221.951 109.047 222.451 109.047 223.023C109.047 223.388 109.161 223.716 109.391 224.008C109.62 224.31 109.979 224.56 110.469 224.758C110.75 224.862 111.578 225.102 112.953 225.477C114.943 226.008 116.328 226.445 117.109 226.789C117.901 227.122 118.521 227.612 118.969 228.258C119.417 228.904 119.641 229.706 119.641 230.664C119.641 231.602 119.365 232.487 118.812 233.32C118.271 234.143 117.484 234.784 116.453 235.242C115.422 235.69 114.255 235.914 112.953 235.914C110.797 235.914 109.151 235.466 108.016 234.57C106.891 233.674 106.172 232.346 105.859 230.586Z" fill="white"/>
<path d="M22.2188 406.508L25.25 407.273C24.6146 409.763 23.4688 411.664 21.8125 412.977C20.1667 414.279 18.151 414.93 15.7656 414.93C13.2969 414.93 11.2865 414.43 9.73438 413.43C8.19271 412.419 7.01562 410.961 6.20312 409.055C5.40104 407.148 5 405.102 5 402.914C5 400.529 5.45312 398.451 6.35938 396.68C7.27604 394.898 8.57292 393.549 10.25 392.633C11.9375 391.706 13.7917 391.242 15.8125 391.242C18.1042 391.242 20.0312 391.826 21.5938 392.992C23.1562 394.159 24.2448 395.799 24.8594 397.914L21.875 398.617C21.3438 396.951 20.5729 395.737 19.5625 394.977C18.5521 394.216 17.2812 393.836 15.75 393.836C13.9896 393.836 12.5156 394.258 11.3281 395.102C10.151 395.945 9.32292 397.081 8.84375 398.508C8.36458 399.924 8.125 401.388 8.125 402.898C8.125 404.846 8.40625 406.549 8.96875 408.008C9.54167 409.456 10.4271 410.539 11.625 411.258C12.8229 411.977 14.1198 412.336 15.5156 412.336C17.2135 412.336 18.651 411.846 19.8281 410.867C21.0052 409.888 21.8021 408.435 22.2188 406.508Z" fill="white"/>
<path d="M39.4688 412.492C38.4271 413.378 37.4219 414.003 36.4531 414.367C35.4948 414.732 34.4635 414.914 33.3594 414.914C31.5365 414.914 30.1354 414.471 29.1562 413.586C28.1771 412.69 27.6875 411.549 27.6875 410.164C27.6875 409.352 27.8698 408.612 28.2344 407.945C28.6094 407.268 29.0938 406.727 29.6875 406.32C30.2917 405.914 30.9688 405.607 31.7188 405.398C32.2708 405.253 33.1042 405.112 34.2188 404.977C36.4896 404.706 38.1615 404.383 39.2344 404.008C39.2448 403.622 39.25 403.378 39.25 403.273C39.25 402.128 38.9844 401.32 38.4531 400.852C37.7344 400.216 36.6667 399.898 35.25 399.898C33.9271 399.898 32.9479 400.133 32.3125 400.602C31.6875 401.06 31.224 401.878 30.9219 403.055L28.1719 402.68C28.4219 401.503 28.8333 400.555 29.4062 399.836C29.9792 399.107 30.8073 398.549 31.8906 398.164C32.974 397.768 34.2292 397.57 35.6562 397.57C37.0729 397.57 38.224 397.737 39.1094 398.07C39.9948 398.404 40.6458 398.826 41.0625 399.336C41.4792 399.836 41.7708 400.471 41.9375 401.242C42.0312 401.721 42.0781 402.586 42.0781 403.836V407.586C42.0781 410.201 42.1354 411.857 42.25 412.555C42.375 413.242 42.6146 413.904 42.9688 414.539H40.0312C39.7396 413.956 39.5521 413.273 39.4688 412.492ZM39.2344 406.211C38.2135 406.628 36.6823 406.982 34.6406 407.273C33.4844 407.44 32.6667 407.628 32.1875 407.836C31.7083 408.044 31.3385 408.352 31.0781 408.758C30.8177 409.154 30.6875 409.596 30.6875 410.086C30.6875 410.836 30.9688 411.461 31.5312 411.961C32.1042 412.461 32.9375 412.711 34.0312 412.711C35.1146 412.711 36.0781 412.477 36.9219 412.008C37.7656 411.529 38.3854 410.878 38.7812 410.055C39.0833 409.419 39.2344 408.482 39.2344 407.242V406.211Z" fill="white"/>
<path d="M46.3906 414.539V391.633H49.2031V414.539H46.3906Z" fill="white"/>
<path d="M52.5312 406.242C52.5312 403.169 53.3854 400.893 55.0938 399.414C56.5208 398.185 58.2604 397.57 60.3125 397.57C62.5938 397.57 64.4583 398.32 65.9062 399.82C67.3542 401.31 68.0781 403.372 68.0781 406.008C68.0781 408.143 67.7552 409.826 67.1094 411.055C66.474 412.273 65.5417 413.221 64.3125 413.898C63.0938 414.576 61.7604 414.914 60.3125 414.914C57.9896 414.914 56.1094 414.169 54.6719 412.68C53.2448 411.19 52.5312 409.044 52.5312 406.242ZM55.4219 406.242C55.4219 408.367 55.8854 409.961 56.8125 411.023C57.7396 412.076 58.9062 412.602 60.3125 412.602C61.7083 412.602 62.8698 412.07 63.7969 411.008C64.724 409.945 65.1875 408.326 65.1875 406.148C65.1875 404.096 64.7188 402.544 63.7812 401.492C62.8542 400.43 61.6979 399.898 60.3125 399.898C58.9062 399.898 57.7396 400.424 56.8125 401.477C55.8854 402.529 55.4219 404.117 55.4219 406.242Z" fill="white"/>
<path d="M71.3594 414.539V397.945H73.8906V400.461C74.5365 399.284 75.1302 398.508 75.6719 398.133C76.224 397.758 76.8281 397.57 77.4844 397.57C78.4323 397.57 79.3958 397.872 80.375 398.477L79.4062 401.086C78.7188 400.68 78.0312 400.477 77.3438 400.477C76.7292 400.477 76.1771 400.664 75.6875 401.039C75.1979 401.404 74.849 401.914 74.6406 402.57C74.3281 403.57 74.1719 404.664 74.1719 405.852V414.539H71.3594Z" fill="white"/>
<path d="M82.0625 394.867V391.633H84.875V394.867H82.0625ZM82.0625 414.539V397.945H84.875V414.539H82.0625Z" fill="white"/>
<path d="M100.531 409.195L103.438 409.555C102.979 411.253 102.13 412.57 100.891 413.508C99.651 414.445 98.0677 414.914 96.1406 414.914C93.7135 414.914 91.7865 414.169 90.3594 412.68C88.9427 411.18 88.2344 409.081 88.2344 406.383C88.2344 403.591 88.9531 401.424 90.3906 399.883C91.8281 398.341 93.6927 397.57 95.9844 397.57C98.2031 397.57 100.016 398.326 101.422 399.836C102.828 401.346 103.531 403.471 103.531 406.211C103.531 406.378 103.526 406.628 103.516 406.961H91.1406C91.2448 408.784 91.7604 410.18 92.6875 411.148C93.6146 412.117 94.7708 412.602 96.1562 412.602C97.1875 412.602 98.0677 412.331 98.7969 411.789C99.526 411.247 100.104 410.383 100.531 409.195ZM91.2969 404.648H100.562C100.438 403.253 100.083 402.206 99.5 401.508C98.6042 400.424 97.4427 399.883 96.0156 399.883C94.724 399.883 93.6354 400.315 92.75 401.18C91.875 402.044 91.3906 403.201 91.2969 404.648Z" fill="white"/>
<path d="M105.859 409.586L108.641 409.148C108.797 410.263 109.229 411.117 109.938 411.711C110.656 412.305 111.656 412.602 112.938 412.602C114.229 412.602 115.188 412.341 115.812 411.82C116.438 411.289 116.75 410.669 116.75 409.961C116.75 409.326 116.474 408.826 115.922 408.461C115.536 408.211 114.578 407.893 113.047 407.508C110.984 406.987 109.552 406.539 108.75 406.164C107.958 405.779 107.354 405.253 106.938 404.586C106.531 403.909 106.328 403.164 106.328 402.352C106.328 401.612 106.495 400.93 106.828 400.305C107.172 399.669 107.635 399.143 108.219 398.727C108.656 398.404 109.25 398.133 110 397.914C110.76 397.685 111.573 397.57 112.438 397.57C113.74 397.57 114.88 397.758 115.859 398.133C116.849 398.508 117.578 399.018 118.047 399.664C118.516 400.299 118.839 401.154 119.016 402.227L116.266 402.602C116.141 401.747 115.776 401.081 115.172 400.602C114.578 400.122 113.734 399.883 112.641 399.883C111.349 399.883 110.427 400.096 109.875 400.523C109.323 400.951 109.047 401.451 109.047 402.023C109.047 402.388 109.161 402.716 109.391 403.008C109.62 403.31 109.979 403.56 110.469 403.758C110.75 403.862 111.578 404.102 112.953 404.477C114.943 405.008 116.328 405.445 117.109 405.789C117.901 406.122 118.521 406.612 118.969 407.258C119.417 407.904 119.641 408.706 119.641 409.664C119.641 410.602 119.365 411.487 118.812 412.32C118.271 413.143 117.484 413.784 116.453 414.242C115.422 414.69 114.255 414.914 112.953 414.914C110.797 414.914 109.151 414.466 108.016 413.57C106.891 412.674 106.172 411.346 105.859 409.586Z" fill="white"/>
<path d="M22.2188 461.508L25.25 462.273C24.6146 464.763 23.4688 466.664 21.8125 467.977C20.1667 469.279 18.151 469.93 15.7656 469.93C13.2969 469.93 11.2865 469.43 9.73438 468.43C8.19271 467.419 7.01562 465.961 6.20312 464.055C5.40104 462.148 5 460.102 5 457.914C5 455.529 5.45312 453.451 6.35938 451.68C7.27604 449.898 8.57292 448.549 10.25 447.633C11.9375 446.706 13.7917 446.242 15.8125 446.242C18.1042 446.242 20.0312 446.826 21.5938 447.992C23.1562 449.159 24.2448 450.799 24.8594 452.914L21.875 453.617C21.3438 451.951 20.5729 450.737 19.5625 449.977C18.5521 449.216 17.2812 448.836 15.75 448.836C13.9896 448.836 12.5156 449.258 11.3281 450.102C10.151 450.945 9.32292 452.081 8.84375 453.508C8.36458 454.924 8.125 456.388 8.125 457.898C8.125 459.846 8.40625 461.549 8.96875 463.008C9.54167 464.456 10.4271 465.539 11.625 466.258C12.8229 466.977 14.1198 467.336 15.5156 467.336C17.2135 467.336 18.651 466.846 19.8281 465.867C21.0052 464.888 21.8021 463.435 22.2188 461.508Z" fill="white"/>
<path d="M39.4688 467.492C38.4271 468.378 37.4219 469.003 36.4531 469.367C35.4948 469.732 34.4635 469.914 33.3594 469.914C31.5365 469.914 30.1354 469.471 29.1562 468.586C28.1771 467.69 27.6875 466.549 27.6875 465.164C27.6875 464.352 27.8698 463.612 28.2344 462.945C28.6094 462.268 29.0938 461.727 29.6875 461.32C30.2917 460.914 30.9688 460.607 31.7188 460.398C32.2708 460.253 33.1042 460.112 34.2188 459.977C36.4896 459.706 38.1615 459.383 39.2344 459.008C39.2448 458.622 39.25 458.378 39.25 458.273C39.25 457.128 38.9844 456.32 38.4531 455.852C37.7344 455.216 36.6667 454.898 35.25 454.898C33.9271 454.898 32.9479 455.133 32.3125 455.602C31.6875 456.06 31.224 456.878 30.9219 458.055L28.1719 457.68C28.4219 456.503 28.8333 455.555 29.4062 454.836C29.9792 454.107 30.8073 453.549 31.8906 453.164C32.974 452.768 34.2292 452.57 35.6562 452.57C37.0729 452.57 38.224 452.737 39.1094 453.07C39.9948 453.404 40.6458 453.826 41.0625 454.336C41.4792 454.836 41.7708 455.471 41.9375 456.242C42.0312 456.721 42.0781 457.586 42.0781 458.836V462.586C42.0781 465.201 42.1354 466.857 42.25 467.555C42.375 468.242 42.6146 468.904 42.9688 469.539H40.0312C39.7396 468.956 39.5521 468.273 39.4688 467.492ZM39.2344 461.211C38.2135 461.628 36.6823 461.982 34.6406 462.273C33.4844 462.44 32.6667 462.628 32.1875 462.836C31.7083 463.044 31.3385 463.352 31.0781 463.758C30.8177 464.154 30.6875 464.596 30.6875 465.086C30.6875 465.836 30.9688 466.461 31.5312 466.961C32.1042 467.461 32.9375 467.711 34.0312 467.711C35.1146 467.711 36.0781 467.477 36.9219 467.008C37.7656 466.529 38.3854 465.878 38.7812 465.055C39.0833 464.419 39.2344 463.482 39.2344 462.242V461.211Z" fill="white"/>
<path d="M46.3906 469.539V446.633H49.2031V469.539H46.3906Z" fill="white"/>
<path d="M52.5312 461.242C52.5312 458.169 53.3854 455.893 55.0938 454.414C56.5208 453.185 58.2604 452.57 60.3125 452.57C62.5938 452.57 64.4583 453.32 65.9062 454.82C67.3542 456.31 68.0781 458.372 68.0781 461.008C68.0781 463.143 67.7552 464.826 67.1094 466.055C66.474 467.273 65.5417 468.221 64.3125 468.898C63.0938 469.576 61.7604 469.914 60.3125 469.914C57.9896 469.914 56.1094 469.169 54.6719 467.68C53.2448 466.19 52.5312 464.044 52.5312 461.242ZM55.4219 461.242C55.4219 463.367 55.8854 464.961 56.8125 466.023C57.7396 467.076 58.9062 467.602 60.3125 467.602C61.7083 467.602 62.8698 467.07 63.7969 466.008C64.724 464.945 65.1875 463.326 65.1875 461.148C65.1875 459.096 64.7188 457.544 63.7812 456.492C62.8542 455.43 61.6979 454.898 60.3125 454.898C58.9062 454.898 57.7396 455.424 56.8125 456.477C55.8854 457.529 55.4219 459.117 55.4219 461.242Z" fill="white"/>
<path d="M71.3594 469.539V452.945H73.8906V455.461C74.5365 454.284 75.1302 453.508 75.6719 453.133C76.224 452.758 76.8281 452.57 77.4844 452.57C78.4323 452.57 79.3958 452.872 80.375 453.477L79.4062 456.086C78.7188 455.68 78.0312 455.477 77.3438 455.477C76.7292 455.477 76.1771 455.664 75.6875 456.039C75.1979 456.404 74.849 456.914 74.6406 457.57C74.3281 458.57 74.1719 459.664 74.1719 460.852V469.539H71.3594Z" fill="white"/>
<path d="M82.0625 449.867V446.633H84.875V449.867H82.0625ZM82.0625 469.539V452.945H84.875V469.539H82.0625Z" fill="white"/>
<path d="M100.531 464.195L103.438 464.555C102.979 466.253 102.13 467.57 100.891 468.508C99.651 469.445 98.0677 469.914 96.1406 469.914C93.7135 469.914 91.7865 469.169 90.3594 467.68C88.9427 466.18 88.2344 464.081 88.2344 461.383C88.2344 458.591 88.9531 456.424 90.3906 454.883C91.8281 453.341 93.6927 452.57 95.9844 452.57C98.2031 452.57 100.016 453.326 101.422 454.836C102.828 456.346 103.531 458.471 103.531 461.211C103.531 461.378 103.526 461.628 103.516 461.961H91.1406C91.2448 463.784 91.7604 465.18 92.6875 466.148C93.6146 467.117 94.7708 467.602 96.1562 467.602C97.1875 467.602 98.0677 467.331 98.7969 466.789C99.526 466.247 100.104 465.383 100.531 464.195ZM91.2969 459.648H100.562C100.438 458.253 100.083 457.206 99.5 456.508C98.6042 455.424 97.4427 454.883 96.0156 454.883C94.724 454.883 93.6354 455.315 92.75 456.18C91.875 457.044 91.3906 458.201 91.2969 459.648Z" fill="white"/>
<path d="M105.859 464.586L108.641 464.148C108.797 465.263 109.229 466.117 109.938 466.711C110.656 467.305 111.656 467.602 112.938 467.602C114.229 467.602 115.188 467.341 115.812 466.82C116.438 466.289 116.75 465.669 116.75 464.961C116.75 464.326 116.474 463.826 115.922 463.461C115.536 463.211 114.578 462.893 113.047 462.508C110.984 461.987 109.552 461.539 108.75 461.164C107.958 460.779 107.354 460.253 106.938 459.586C106.531 458.909 106.328 458.164 106.328 457.352C106.328 456.612 106.495 455.93 106.828 455.305C107.172 454.669 107.635 454.143 108.219 453.727C108.656 453.404 109.25 453.133 110 452.914C110.76 452.685 111.573 452.57 112.438 452.57C113.74 452.57 114.88 452.758 115.859 453.133C116.849 453.508 117.578 454.018 118.047 454.664C118.516 455.299 118.839 456.154 119.016 457.227L116.266 457.602C116.141 456.747 115.776 456.081 115.172 455.602C114.578 455.122 113.734 454.883 112.641 454.883C111.349 454.883 110.427 455.096 109.875 455.523C109.323 455.951 109.047 456.451 109.047 457.023C109.047 457.388 109.161 457.716 109.391 458.008C109.62 458.31 109.979 458.56 110.469 458.758C110.75 458.862 111.578 459.102 112.953 459.477C114.943 460.008 116.328 460.445 117.109 460.789C117.901 461.122 118.521 461.612 118.969 462.258C119.417 462.904 119.641 463.706 119.641 464.664C119.641 465.602 119.365 466.487 118.812 467.32C118.271 468.143 117.484 468.784 116.453 469.242C115.422 469.69 114.255 469.914 112.953 469.914C110.797 469.914 109.151 469.466 108.016 468.57C106.891 467.674 106.172 466.346 105.859 464.586Z" fill="white"/>
<path d="M17.2188 513.508L20.25 514.273C19.6146 516.763 18.4688 518.664 16.8125 519.977C15.1667 521.279 13.151 521.93 10.7656 521.93C8.29688 521.93 6.28646 521.43 4.73438 520.43C3.19271 519.419 2.01562 517.961 1.20312 516.055C0.401042 514.148 0 512.102 0 509.914C0 507.529 0.453125 505.451 1.35938 503.68C2.27604 501.898 3.57292 500.549 5.25 499.633C6.9375 498.706 8.79167 498.242 10.8125 498.242C13.1042 498.242 15.0312 498.826 16.5938 499.992C18.1562 501.159 19.2448 502.799 19.8594 504.914L16.875 505.617C16.3438 503.951 15.5729 502.737 14.5625 501.977C13.5521 501.216 12.2812 500.836 10.75 500.836C8.98958 500.836 7.51562 501.258 6.32812 502.102C5.15104 502.945 4.32292 504.081 3.84375 505.508C3.36458 506.924 3.125 508.388 3.125 509.898C3.125 511.846 3.40625 513.549 3.96875 515.008C4.54167 516.456 5.42708 517.539 6.625 518.258C7.82292 518.977 9.11979 519.336 10.5156 519.336C12.2135 519.336 13.651 518.846 14.8281 517.867C16.0052 516.888 16.8021 515.435 17.2188 513.508Z" fill="white"/>
<path d="M34.4688 519.492C33.4271 520.378 32.4219 521.003 31.4531 521.367C30.4948 521.732 29.4635 521.914 28.3594 521.914C26.5365 521.914 25.1354 521.471 24.1562 520.586C23.1771 519.69 22.6875 518.549 22.6875 517.164C22.6875 516.352 22.8698 515.612 23.2344 514.945C23.6094 514.268 24.0938 513.727 24.6875 513.32C25.2917 512.914 25.9688 512.607 26.7188 512.398C27.2708 512.253 28.1042 512.112 29.2188 511.977C31.4896 511.706 33.1615 511.383 34.2344 511.008C34.2448 510.622 34.25 510.378 34.25 510.273C34.25 509.128 33.9844 508.32 33.4531 507.852C32.7344 507.216 31.6667 506.898 30.25 506.898C28.9271 506.898 27.9479 507.133 27.3125 507.602C26.6875 508.06 26.224 508.878 25.9219 510.055L23.1719 509.68C23.4219 508.503 23.8333 507.555 24.4062 506.836C24.9792 506.107 25.8073 505.549 26.8906 505.164C27.974 504.768 29.2292 504.57 30.6562 504.57C32.0729 504.57 33.224 504.737 34.1094 505.07C34.9948 505.404 35.6458 505.826 36.0625 506.336C36.4792 506.836 36.7708 507.471 36.9375 508.242C37.0312 508.721 37.0781 509.586 37.0781 510.836V514.586C37.0781 517.201 37.1354 518.857 37.25 519.555C37.375 520.242 37.6146 520.904 37.9688 521.539H35.0312C34.7396 520.956 34.5521 520.273 34.4688 519.492ZM34.2344 513.211C33.2135 513.628 31.6823 513.982 29.6406 514.273C28.4844 514.44 27.6667 514.628 27.1875 514.836C26.7083 515.044 26.3385 515.352 26.0781 515.758C25.8177 516.154 25.6875 516.596 25.6875 517.086C25.6875 517.836 25.9688 518.461 26.5312 518.961C27.1042 519.461 27.9375 519.711 29.0312 519.711C30.1146 519.711 31.0781 519.477 31.9219 519.008C32.7656 518.529 33.3854 517.878 33.7812 517.055C34.0833 516.419 34.2344 515.482 34.2344 514.242V513.211Z" fill="white"/>
<path d="M41.3906 521.539V498.633H44.2031V521.539H41.3906Z" fill="white"/>
<path d="M47.5312 513.242C47.5312 510.169 48.3854 507.893 50.0938 506.414C51.5208 505.185 53.2604 504.57 55.3125 504.57C57.5938 504.57 59.4583 505.32 60.9062 506.82C62.3542 508.31 63.0781 510.372 63.0781 513.008C63.0781 515.143 62.7552 516.826 62.1094 518.055C61.474 519.273 60.5417 520.221 59.3125 520.898C58.0938 521.576 56.7604 521.914 55.3125 521.914C52.9896 521.914 51.1094 521.169 49.6719 519.68C48.2448 518.19 47.5312 516.044 47.5312 513.242ZM50.4219 513.242C50.4219 515.367 50.8854 516.961 51.8125 518.023C52.7396 519.076 53.9062 519.602 55.3125 519.602C56.7083 519.602 57.8698 519.07 58.7969 518.008C59.724 516.945 60.1875 515.326 60.1875 513.148C60.1875 511.096 59.7188 509.544 58.7812 508.492C57.8542 507.43 56.6979 506.898 55.3125 506.898C53.9062 506.898 52.7396 507.424 51.8125 508.477C50.8854 509.529 50.4219 511.117 50.4219 513.242Z" fill="white"/>
<path d="M66.3594 521.539V504.945H68.8906V507.461C69.5365 506.284 70.1302 505.508 70.6719 505.133C71.224 504.758 71.8281 504.57 72.4844 504.57C73.4323 504.57 74.3958 504.872 75.375 505.477L74.4062 508.086C73.7188 507.68 73.0312 507.477 72.3438 507.477C71.7292 507.477 71.1771 507.664 70.6875 508.039C70.1979 508.404 69.849 508.914 69.6406 509.57C69.3281 510.57 69.1719 511.664 69.1719 512.852V521.539H66.3594Z" fill="white"/>
<path d="M77.0625 501.867V498.633H79.875V501.867H77.0625ZM77.0625 521.539V504.945H79.875V521.539H77.0625Z" fill="white"/>
<path d="M95.5312 516.195L98.4375 516.555C97.9792 518.253 97.1302 519.57 95.8906 520.508C94.651 521.445 93.0677 521.914 91.1406 521.914C88.7135 521.914 86.7865 521.169 85.3594 519.68C83.9427 518.18 83.2344 516.081 83.2344 513.383C83.2344 510.591 83.9531 508.424 85.3906 506.883C86.8281 505.341 88.6927 504.57 90.9844 504.57C93.2031 504.57 95.0156 505.326 96.4219 506.836C97.8281 508.346 98.5312 510.471 98.5312 513.211C98.5312 513.378 98.526 513.628 98.5156 513.961H86.1406C86.2448 515.784 86.7604 517.18 87.6875 518.148C88.6146 519.117 89.7708 519.602 91.1562 519.602C92.1875 519.602 93.0677 519.331 93.7969 518.789C94.526 518.247 95.1042 517.383 95.5312 516.195ZM86.2969 511.648H95.5625C95.4375 510.253 95.0833 509.206 94.5 508.508C93.6042 507.424 92.4427 506.883 91.0156 506.883C89.724 506.883 88.6354 507.315 87.75 508.18C86.875 509.044 86.3906 510.201 86.2969 511.648Z" fill="white"/>
<path d="M100.859 516.586L103.641 516.148C103.797 517.263 104.229 518.117 104.938 518.711C105.656 519.305 106.656 519.602 107.938 519.602C109.229 519.602 110.188 519.341 110.812 518.82C111.438 518.289 111.75 517.669 111.75 516.961C111.75 516.326 111.474 515.826 110.922 515.461C110.536 515.211 109.578 514.893 108.047 514.508C105.984 513.987 104.552 513.539 103.75 513.164C102.958 512.779 102.354 512.253 101.938 511.586C101.531 510.909 101.328 510.164 101.328 509.352C101.328 508.612 101.495 507.93 101.828 507.305C102.172 506.669 102.635 506.143 103.219 505.727C103.656 505.404 104.25 505.133 105 504.914C105.76 504.685 106.573 504.57 107.438 504.57C108.74 504.57 109.88 504.758 110.859 505.133C111.849 505.508 112.578 506.018 113.047 506.664C113.516 507.299 113.839 508.154 114.016 509.227L111.266 509.602C111.141 508.747 110.776 508.081 110.172 507.602C109.578 507.122 108.734 506.883 107.641 506.883C106.349 506.883 105.427 507.096 104.875 507.523C104.323 507.951 104.047 508.451 104.047 509.023C104.047 509.388 104.161 509.716 104.391 510.008C104.62 510.31 104.979 510.56 105.469 510.758C105.75 510.862 106.578 511.102 107.953 511.477C109.943 512.008 111.328 512.445 112.109 512.789C112.901 513.122 113.521 513.612 113.969 514.258C114.417 514.904 114.641 515.706 114.641 516.664C114.641 517.602 114.365 518.487 113.812 519.32C113.271 520.143 112.484 520.784 111.453 521.242C110.422 521.69 109.255 521.914 107.953 521.914C105.797 521.914 104.151 521.466 103.016 520.57C101.891 519.674 101.172 518.346 100.859 516.586Z" fill="white"/>
<path d="M22.2188 351.508L25.25 352.273C24.6146 354.763 23.4688 356.664 21.8125 357.977C20.1667 359.279 18.151 359.93 15.7656 359.93C13.2969 359.93 11.2865 359.43 9.73438 358.43C8.19271 357.419 7.01562 355.961 6.20312 354.055C5.40104 352.148 5 350.102 5 347.914C5 345.529 5.45312 343.451 6.35938 341.68C7.27604 339.898 8.57292 338.549 10.25 337.633C11.9375 336.706 13.7917 336.242 15.8125 336.242C18.1042 336.242 20.0312 336.826 21.5938 337.992C23.1562 339.159 24.2448 340.799 24.8594 342.914L21.875 343.617C21.3438 341.951 20.5729 340.737 19.5625 339.977C18.5521 339.216 17.2812 338.836 15.75 338.836C13.9896 338.836 12.5156 339.258 11.3281 340.102C10.151 340.945 9.32292 342.081 8.84375 343.508C8.36458 344.924 8.125 346.388 8.125 347.898C8.125 349.846 8.40625 351.549 8.96875 353.008C9.54167 354.456 10.4271 355.539 11.625 356.258C12.8229 356.977 14.1198 357.336 15.5156 357.336C17.2135 357.336 18.651 356.846 19.8281 355.867C21.0052 354.888 21.8021 353.435 22.2188 351.508Z" fill="white"/>
<path d="M39.4688 357.492C38.4271 358.378 37.4219 359.003 36.4531 359.367C35.4948 359.732 34.4635 359.914 33.3594 359.914C31.5365 359.914 30.1354 359.471 29.1562 358.586C28.1771 357.69 27.6875 356.549 27.6875 355.164C27.6875 354.352 27.8698 353.612 28.2344 352.945C28.6094 352.268 29.0938 351.727 29.6875 351.32C30.2917 350.914 30.9688 350.607 31.7188 350.398C32.2708 350.253 33.1042 350.112 34.2188 349.977C36.4896 349.706 38.1615 349.383 39.2344 349.008C39.2448 348.622 39.25 348.378 39.25 348.273C39.25 347.128 38.9844 346.32 38.4531 345.852C37.7344 345.216 36.6667 344.898 35.25 344.898C33.9271 344.898 32.9479 345.133 32.3125 345.602C31.6875 346.06 31.224 346.878 30.9219 348.055L28.1719 347.68C28.4219 346.503 28.8333 345.555 29.4062 344.836C29.9792 344.107 30.8073 343.549 31.8906 343.164C32.974 342.768 34.2292 342.57 35.6562 342.57C37.0729 342.57 38.224 342.737 39.1094 343.07C39.9948 343.404 40.6458 343.826 41.0625 344.336C41.4792 344.836 41.7708 345.471 41.9375 346.242C42.0312 346.721 42.0781 347.586 42.0781 348.836V352.586C42.0781 355.201 42.1354 356.857 42.25 357.555C42.375 358.242 42.6146 358.904 42.9688 359.539H40.0312C39.7396 358.956 39.5521 358.273 39.4688 357.492ZM39.2344 351.211C38.2135 351.628 36.6823 351.982 34.6406 352.273C33.4844 352.44 32.6667 352.628 32.1875 352.836C31.7083 353.044 31.3385 353.352 31.0781 353.758C30.8177 354.154 30.6875 354.596 30.6875 355.086C30.6875 355.836 30.9688 356.461 31.5312 356.961C32.1042 357.461 32.9375 357.711 34.0312 357.711C35.1146 357.711 36.0781 357.477 36.9219 357.008C37.7656 356.529 38.3854 355.878 38.7812 355.055C39.0833 354.419 39.2344 353.482 39.2344 352.242V351.211Z" fill="white"/>
<path d="M46.3906 359.539V336.633H49.2031V359.539H46.3906Z" fill="white"/>
<path d="M52.5312 351.242C52.5312 348.169 53.3854 345.893 55.0938 344.414C56.5208 343.185 58.2604 342.57 60.3125 342.57C62.5938 342.57 64.4583 343.32 65.9062 344.82C67.3542 346.31 68.0781 348.372 68.0781 351.008C68.0781 353.143 67.7552 354.826 67.1094 356.055C66.474 357.273 65.5417 358.221 64.3125 358.898C63.0938 359.576 61.7604 359.914 60.3125 359.914C57.9896 359.914 56.1094 359.169 54.6719 357.68C53.2448 356.19 52.5312 354.044 52.5312 351.242ZM55.4219 351.242C55.4219 353.367 55.8854 354.961 56.8125 356.023C57.7396 357.076 58.9062 357.602 60.3125 357.602C61.7083 357.602 62.8698 357.07 63.7969 356.008C64.724 354.945 65.1875 353.326 65.1875 351.148C65.1875 349.096 64.7188 347.544 63.7812 346.492C62.8542 345.43 61.6979 344.898 60.3125 344.898C58.9062 344.898 57.7396 345.424 56.8125 346.477C55.8854 347.529 55.4219 349.117 55.4219 351.242Z" fill="white"/>
<path d="M71.3594 359.539V342.945H73.8906V345.461C74.5365 344.284 75.1302 343.508 75.6719 343.133C76.224 342.758 76.8281 342.57 77.4844 342.57C78.4323 342.57 79.3958 342.872 80.375 343.477L79.4062 346.086C78.7188 345.68 78.0312 345.477 77.3438 345.477C76.7292 345.477 76.1771 345.664 75.6875 346.039C75.1979 346.404 74.849 346.914 74.6406 347.57C74.3281 348.57 74.1719 349.664 74.1719 350.852V359.539H71.3594Z" fill="white"/>
<path d="M82.0625 339.867V336.633H84.875V339.867H82.0625ZM82.0625 359.539V342.945H84.875V359.539H82.0625Z" fill="white"/>
<path d="M100.531 354.195L103.438 354.555C102.979 356.253 102.13 357.57 100.891 358.508C99.651 359.445 98.0677 359.914 96.1406 359.914C93.7135 359.914 91.7865 359.169 90.3594 357.68C88.9427 356.18 88.2344 354.081 88.2344 351.383C88.2344 348.591 88.9531 346.424 90.3906 344.883C91.8281 343.341 93.6927 342.57 95.9844 342.57C98.2031 342.57 100.016 343.326 101.422 344.836C102.828 346.346 103.531 348.471 103.531 351.211C103.531 351.378 103.526 351.628 103.516 351.961H91.1406C91.2448 353.784 91.7604 355.18 92.6875 356.148C93.6146 357.117 94.7708 357.602 96.1562 357.602C97.1875 357.602 98.0677 357.331 98.7969 356.789C99.526 356.247 100.104 355.383 100.531 354.195ZM91.2969 349.648H100.562C100.438 348.253 100.083 347.206 99.5 346.508C98.6042 345.424 97.4427 344.883 96.0156 344.883C94.724 344.883 93.6354 345.315 92.75 346.18C91.875 347.044 91.3906 348.201 91.2969 349.648Z" fill="white"/>
<path d="M105.859 354.586L108.641 354.148C108.797 355.263 109.229 356.117 109.938 356.711C110.656 357.305 111.656 357.602 112.938 357.602C114.229 357.602 115.188 357.341 115.812 356.82C116.438 356.289 116.75 355.669 116.75 354.961C116.75 354.326 116.474 353.826 115.922 353.461C115.536 353.211 114.578 352.893 113.047 352.508C110.984 351.987 109.552 351.539 108.75 351.164C107.958 350.779 107.354 350.253 106.938 349.586C106.531 348.909 106.328 348.164 106.328 347.352C106.328 346.612 106.495 345.93 106.828 345.305C107.172 344.669 107.635 344.143 108.219 343.727C108.656 343.404 109.25 343.133 110 342.914C110.76 342.685 111.573 342.57 112.438 342.57C113.74 342.57 114.88 342.758 115.859 343.133C116.849 343.508 117.578 344.018 118.047 344.664C118.516 345.299 118.839 346.154 119.016 347.227L116.266 347.602C116.141 346.747 115.776 346.081 115.172 345.602C114.578 345.122 113.734 344.883 112.641 344.883C111.349 344.883 110.427 345.096 109.875 345.523C109.323 345.951 109.047 346.451 109.047 347.023C109.047 347.388 109.161 347.716 109.391 348.008C109.62 348.31 109.979 348.56 110.469 348.758C110.75 348.862 111.578 349.102 112.953 349.477C114.943 350.008 116.328 350.445 117.109 350.789C117.901 351.122 118.521 351.612 118.969 352.258C119.417 352.904 119.641 353.706 119.641 354.664C119.641 355.602 119.365 356.487 118.812 357.32C118.271 358.143 117.484 358.784 116.453 359.242C115.422 359.69 114.255 359.914 112.953 359.914C110.797 359.914 109.151 359.466 108.016 358.57C106.891 357.674 106.172 356.346 105.859 354.586Z" fill="white"/>
<path d="M11.0312 304.539V281.633H26.4844V284.336H14.0625V291.43H24.8125V294.133H14.0625V304.539H11.0312Z" fill="white"/>
<path d="M40.9062 302.492C39.8646 303.378 38.8594 304.003 37.8906 304.367C36.9323 304.732 35.901 304.914 34.7969 304.914C32.974 304.914 31.5729 304.471 30.5938 303.586C29.6146 302.69 29.125 301.549 29.125 300.164C29.125 299.352 29.3073 298.612 29.6719 297.945C30.0469 297.268 30.5312 296.727 31.125 296.32C31.7292 295.914 32.4062 295.607 33.1562 295.398C33.7083 295.253 34.5417 295.112 35.6562 294.977C37.9271 294.706 39.599 294.383 40.6719 294.008C40.6823 293.622 40.6875 293.378 40.6875 293.273C40.6875 292.128 40.4219 291.32 39.8906 290.852C39.1719 290.216 38.1042 289.898 36.6875 289.898C35.3646 289.898 34.3854 290.133 33.75 290.602C33.125 291.06 32.6615 291.878 32.3594 293.055L29.6094 292.68C29.8594 291.503 30.2708 290.555 30.8438 289.836C31.4167 289.107 32.2448 288.549 33.3281 288.164C34.4115 287.768 35.6667 287.57 37.0938 287.57C38.5104 287.57 39.6615 287.737 40.5469 288.07C41.4323 288.404 42.0833 288.826 42.5 289.336C42.9167 289.836 43.2083 290.471 43.375 291.242C43.4688 291.721 43.5156 292.586 43.5156 293.836V297.586C43.5156 300.201 43.5729 301.857 43.6875 302.555C43.8125 303.242 44.0521 303.904 44.4062 304.539H41.4688C41.1771 303.956 40.9896 303.273 40.9062 302.492ZM40.6719 296.211C39.651 296.628 38.1198 296.982 36.0781 297.273C34.9219 297.44 34.1042 297.628 33.625 297.836C33.1458 298.044 32.776 298.352 32.5156 298.758C32.2552 299.154 32.125 299.596 32.125 300.086C32.125 300.836 32.4062 301.461 32.9688 301.961C33.5417 302.461 34.375 302.711 35.4688 302.711C36.5521 302.711 37.5156 302.477 38.3594 302.008C39.2031 301.529 39.8229 300.878 40.2188 300.055C40.5208 299.419 40.6719 298.482 40.6719 297.242V296.211Z" fill="white"/>
<path d="M54.0312 302.023L54.4375 304.508C53.6458 304.674 52.9375 304.758 52.3125 304.758C51.2917 304.758 50.5 304.596 49.9375 304.273C49.375 303.951 48.9792 303.529 48.75 303.008C48.5208 302.477 48.4062 301.367 48.4062 299.68V290.133H46.3438V287.945H48.4062V283.836L51.2031 282.148V287.945H54.0312V290.133H51.2031V299.836C51.2031 300.638 51.25 301.154 51.3438 301.383C51.4479 301.612 51.6094 301.794 51.8281 301.93C52.0573 302.065 52.3802 302.133 52.7969 302.133C53.1094 302.133 53.5208 302.096 54.0312 302.023Z" fill="white"/>
<path d="M55.6719 299.586L58.4531 299.148C58.6094 300.263 59.0417 301.117 59.75 301.711C60.4688 302.305 61.4688 302.602 62.75 302.602C64.0417 302.602 65 302.341 65.625 301.82C66.25 301.289 66.5625 300.669 66.5625 299.961C66.5625 299.326 66.2865 298.826 65.7344 298.461C65.349 298.211 64.3906 297.893 62.8594 297.508C60.7969 296.987 59.3646 296.539 58.5625 296.164C57.7708 295.779 57.1667 295.253 56.75 294.586C56.3438 293.909 56.1406 293.164 56.1406 292.352C56.1406 291.612 56.3073 290.93 56.6406 290.305C56.9844 289.669 57.4479 289.143 58.0312 288.727C58.4688 288.404 59.0625 288.133 59.8125 287.914C60.5729 287.685 61.3854 287.57 62.25 287.57C63.5521 287.57 64.6927 287.758 65.6719 288.133C66.6615 288.508 67.3906 289.018 67.8594 289.664C68.3281 290.299 68.651 291.154 68.8281 292.227L66.0781 292.602C65.9531 291.747 65.5885 291.081 64.9844 290.602C64.3906 290.122 63.5469 289.883 62.4531 289.883C61.1615 289.883 60.2396 290.096 59.6875 290.523C59.1354 290.951 58.8594 291.451 58.8594 292.023C58.8594 292.388 58.974 292.716 59.2031 293.008C59.4323 293.31 59.7917 293.56 60.2812 293.758C60.5625 293.862 61.3906 294.102 62.7656 294.477C64.7552 295.008 66.1406 295.445 66.9219 295.789C67.7135 296.122 68.3333 296.612 68.7812 297.258C69.2292 297.904 69.4531 298.706 69.4531 299.664C69.4531 300.602 69.1771 301.487 68.625 302.32C68.0833 303.143 67.2969 303.784 66.2656 304.242C65.2344 304.69 64.0677 304.914 62.7656 304.914C60.6094 304.914 58.9635 304.466 57.8281 303.57C56.7031 302.674 55.9844 301.346 55.6719 299.586Z" fill="white"/>
<path d="M416.383 97.5391L420.781 86.0859H422.414L427.102 97.5391H425.375L424.039 94.0703H419.25L417.992 97.5391H416.383ZM419.688 92.8359H423.57L422.375 89.6641C422.01 88.7005 421.74 87.9089 421.562 87.2891C421.417 88.0234 421.211 88.7526 420.945 89.4766L419.688 92.8359Z" fill="white"/>
<path d="M428.133 97.5391V89.2422H429.391V90.4062C429.651 90 429.997 89.6745 430.43 89.4297C430.862 89.1797 431.354 89.0547 431.906 89.0547C432.521 89.0547 433.023 89.1823 433.414 89.4375C433.81 89.6927 434.089 90.0495 434.25 90.5078C434.906 89.5391 435.76 89.0547 436.812 89.0547C437.635 89.0547 438.268 89.2839 438.711 89.7422C439.154 90.1953 439.375 90.8958 439.375 91.8438V97.5391H437.977V92.3125C437.977 91.75 437.93 91.3464 437.836 91.1016C437.747 90.8516 437.583 90.651 437.344 90.5C437.104 90.349 436.823 90.2734 436.5 90.2734C435.917 90.2734 435.432 90.4688 435.047 90.8594C434.661 91.2448 434.469 91.8646 434.469 92.7188V97.5391H433.062V92.1484C433.062 91.5234 432.948 91.0547 432.719 90.7422C432.49 90.4297 432.115 90.2734 431.594 90.2734C431.198 90.2734 430.831 90.3776 430.492 90.5859C430.159 90.7943 429.917 91.099 429.766 91.5C429.615 91.901 429.539 92.4792 429.539 93.2344V97.5391H428.133Z" fill="white"/>
<path d="M440.938 93.3906C440.938 91.8542 441.365 90.7161 442.219 89.9766C442.932 89.362 443.802 89.0547 444.828 89.0547C445.969 89.0547 446.901 89.4297 447.625 90.1797C448.349 90.9245 448.711 91.9557 448.711 93.2734C448.711 94.3411 448.549 95.1823 448.227 95.7969C447.909 96.4062 447.443 96.8802 446.828 97.2188C446.219 97.5573 445.552 97.7266 444.828 97.7266C443.667 97.7266 442.727 97.3542 442.008 96.6094C441.294 95.8646 440.938 94.7917 440.938 93.3906ZM442.383 93.3906C442.383 94.4531 442.615 95.25 443.078 95.7812C443.542 96.3073 444.125 96.5703 444.828 96.5703C445.526 96.5703 446.107 96.3047 446.57 95.7734C447.034 95.2422 447.266 94.4323 447.266 93.3438C447.266 92.3177 447.031 91.5417 446.562 91.0156C446.099 90.4844 445.521 90.2188 444.828 90.2188C444.125 90.2188 443.542 90.4818 443.078 91.0078C442.615 91.5339 442.383 92.3281 442.383 93.3906Z" fill="white"/>
<path d="M455.805 97.5391V96.3203C455.159 97.2578 454.281 97.7266 453.172 97.7266C452.682 97.7266 452.224 97.6328 451.797 97.4453C451.375 97.2578 451.06 97.0234 450.852 96.7422C450.648 96.4557 450.505 96.1068 450.422 95.6953C450.365 95.4193 450.336 94.9818 450.336 94.3828V89.2422H451.742V93.8438C451.742 94.5781 451.771 95.0729 451.828 95.3281C451.917 95.6979 452.104 95.9896 452.391 96.2031C452.677 96.4115 453.031 96.5156 453.453 96.5156C453.875 96.5156 454.271 96.4089 454.641 96.1953C455.01 95.9766 455.271 95.6823 455.422 95.3125C455.578 94.9375 455.656 94.3958 455.656 93.6875V89.2422H457.062V97.5391H455.805Z" fill="white"/>
<path d="M459.273 97.5391V89.2422H460.539V90.4219C461.148 89.5104 462.029 89.0547 463.18 89.0547C463.68 89.0547 464.138 89.1458 464.555 89.3281C464.977 89.5052 465.292 89.7396 465.5 90.0312C465.708 90.3229 465.854 90.6693 465.938 91.0703C465.99 91.3307 466.016 91.7865 466.016 92.4375V97.5391H464.609V92.4922C464.609 91.9193 464.555 91.4922 464.445 91.2109C464.336 90.9245 464.141 90.6979 463.859 90.5312C463.583 90.3594 463.258 90.2734 462.883 90.2734C462.284 90.2734 461.766 90.4635 461.328 90.8438C460.896 91.224 460.68 91.9453 460.68 93.0078V97.5391H459.273Z" fill="white"/>
<path d="M471.25 96.2812L471.453 97.5234C471.057 97.6068 470.703 97.6484 470.391 97.6484C469.88 97.6484 469.484 97.5677 469.203 97.4062C468.922 97.2448 468.724 97.0339 468.609 96.7734C468.495 96.5078 468.438 95.9531 468.438 95.1094V90.3359H467.406V89.2422H468.438V87.1875L469.836 86.3438V89.2422H471.25V90.3359H469.836V95.1875C469.836 95.5885 469.859 95.8464 469.906 95.9609C469.958 96.0755 470.039 96.1667 470.148 96.2344C470.263 96.3021 470.424 96.3359 470.633 96.3359C470.789 96.3359 470.995 96.3177 471.25 96.2812Z" fill="white"/>
<path d="M420.328 226.539H417.516V208.617C416.839 209.263 415.948 209.909 414.844 210.555C413.75 211.201 412.766 211.685 411.891 212.008V209.289C413.464 208.549 414.839 207.654 416.016 206.602C417.193 205.549 418.026 204.529 418.516 203.539H420.328V226.539Z" fill="white"/>
<path d="M442.328 223.836V226.539H427.188C427.167 225.862 427.276 225.211 427.516 224.586C427.901 223.555 428.516 222.539 429.359 221.539C430.214 220.539 431.443 219.383 433.047 218.07C435.536 216.029 437.219 214.414 438.094 213.227C438.969 212.029 439.406 210.898 439.406 209.836C439.406 208.721 439.005 207.784 438.203 207.023C437.411 206.253 436.375 205.867 435.094 205.867C433.74 205.867 432.656 206.273 431.844 207.086C431.031 207.898 430.62 209.023 430.609 210.461L427.719 210.164C427.917 208.008 428.661 206.367 429.953 205.242C431.245 204.107 432.979 203.539 435.156 203.539C437.354 203.539 439.094 204.148 440.375 205.367C441.656 206.586 442.297 208.096 442.297 209.898C442.297 210.815 442.109 211.716 441.734 212.602C441.359 213.487 440.734 214.419 439.859 215.398C438.995 216.378 437.552 217.721 435.531 219.43C433.844 220.846 432.76 221.81 432.281 222.32C431.802 222.82 431.406 223.326 431.094 223.836H442.328Z" fill="white"/>
<path d="M419.328 295.539H416.516V277.617C415.839 278.263 414.948 278.909 413.844 279.555C412.75 280.201 411.766 280.685 410.891 281.008V278.289C412.464 277.549 413.839 276.654 415.016 275.602C416.193 274.549 417.026 273.529 417.516 272.539H419.328V295.539Z" fill="white"/>
<path d="M441.328 292.836V295.539H426.188C426.167 294.862 426.276 294.211 426.516 293.586C426.901 292.555 427.516 291.539 428.359 290.539C429.214 289.539 430.443 288.383 432.047 287.07C434.536 285.029 436.219 283.414 437.094 282.227C437.969 281.029 438.406 279.898 438.406 278.836C438.406 277.721 438.005 276.784 437.203 276.023C436.411 275.253 435.375 274.867 434.094 274.867C432.74 274.867 431.656 275.273 430.844 276.086C430.031 276.898 429.62 278.023 429.609 279.461L426.719 279.164C426.917 277.008 427.661 275.367 428.953 274.242C430.245 273.107 431.979 272.539 434.156 272.539C436.354 272.539 438.094 273.148 439.375 274.367C440.656 275.586 441.297 277.096 441.297 278.898C441.297 279.815 441.109 280.716 440.734 281.602C440.359 282.487 439.734 283.419 438.859 284.398C437.995 285.378 436.552 286.721 434.531 288.43C432.844 289.846 431.76 290.81 431.281 291.32C430.802 291.82 430.406 292.326 430.094 292.836H441.328Z" fill="white"/>
<path d="M420.328 367.539H417.516V349.617C416.839 350.263 415.948 350.909 414.844 351.555C413.75 352.201 412.766 352.685 411.891 353.008V350.289C413.464 349.549 414.839 348.654 416.016 347.602C417.193 346.549 418.026 345.529 418.516 344.539H420.328V367.539Z" fill="white"/>
<path d="M442.328 364.836V367.539H427.188C427.167 366.862 427.276 366.211 427.516 365.586C427.901 364.555 428.516 363.539 429.359 362.539C430.214 361.539 431.443 360.383 433.047 359.07C435.536 357.029 437.219 355.414 438.094 354.227C438.969 353.029 439.406 351.898 439.406 350.836C439.406 349.721 439.005 348.784 438.203 348.023C437.411 347.253 436.375 346.867 435.094 346.867C433.74 346.867 432.656 347.273 431.844 348.086C431.031 348.898 430.62 350.023 430.609 351.461L427.719 351.164C427.917 349.008 428.661 347.367 429.953 346.242C431.245 345.107 432.979 344.539 435.156 344.539C437.354 344.539 439.094 345.148 440.375 346.367C441.656 347.586 442.297 349.096 442.297 350.898C442.297 351.815 442.109 352.716 441.734 353.602C441.359 354.487 440.734 355.419 439.859 356.398C438.995 357.378 437.552 358.721 435.531 360.43C433.844 361.846 432.76 362.81 432.281 363.32C431.802 363.82 431.406 364.326 431.094 364.836H442.328Z" fill="white"/>
<path d="M420.328 419.539H417.516V401.617C416.839 402.263 415.948 402.909 414.844 403.555C413.75 404.201 412.766 404.685 411.891 405.008V402.289C413.464 401.549 414.839 400.654 416.016 399.602C417.193 398.549 418.026 397.529 418.516 396.539H420.328V419.539Z" fill="white"/>
<path d="M442.328 416.836V419.539H427.188C427.167 418.862 427.276 418.211 427.516 417.586C427.901 416.555 428.516 415.539 429.359 414.539C430.214 413.539 431.443 412.383 433.047 411.07C435.536 409.029 437.219 407.414 438.094 406.227C438.969 405.029 439.406 403.898 439.406 402.836C439.406 401.721 439.005 400.784 438.203 400.023C437.411 399.253 436.375 398.867 435.094 398.867C433.74 398.867 432.656 399.273 431.844 400.086C431.031 400.898 430.62 402.023 430.609 403.461L427.719 403.164C427.917 401.008 428.661 399.367 429.953 398.242C431.245 397.107 432.979 396.539 435.156 396.539C437.354 396.539 439.094 397.148 440.375 398.367C441.656 399.586 442.297 401.096 442.297 402.898C442.297 403.815 442.109 404.716 441.734 405.602C441.359 406.487 440.734 407.419 439.859 408.398C438.995 409.378 437.552 410.721 435.531 412.43C433.844 413.846 432.76 414.81 432.281 415.32C431.802 415.82 431.406 416.326 431.094 416.836H442.328Z" fill="white"/>
<path d="M420.328 474.539H417.516V456.617C416.839 457.263 415.948 457.909 414.844 458.555C413.75 459.201 412.766 459.685 411.891 460.008V457.289C413.464 456.549 414.839 455.654 416.016 454.602C417.193 453.549 418.026 452.529 418.516 451.539H420.328V474.539Z" fill="white"/>
<path d="M442.328 471.836V474.539H427.188C427.167 473.862 427.276 473.211 427.516 472.586C427.901 471.555 428.516 470.539 429.359 469.539C430.214 468.539 431.443 467.383 433.047 466.07C435.536 464.029 437.219 462.414 438.094 461.227C438.969 460.029 439.406 458.898 439.406 457.836C439.406 456.721 439.005 455.784 438.203 455.023C437.411 454.253 436.375 453.867 435.094 453.867C433.74 453.867 432.656 454.273 431.844 455.086C431.031 455.898 430.62 457.023 430.609 458.461L427.719 458.164C427.917 456.008 428.661 454.367 429.953 453.242C431.245 452.107 432.979 451.539 435.156 451.539C437.354 451.539 439.094 452.148 440.375 453.367C441.656 454.586 442.297 456.096 442.297 457.898C442.297 458.815 442.109 459.716 441.734 460.602C441.359 461.487 440.734 462.419 439.859 463.398C438.995 464.378 437.552 465.721 435.531 467.43C433.844 468.846 432.76 469.81 432.281 470.32C431.802 470.82 431.406 471.326 431.094 471.836H442.328Z" fill="white"/>
<path d="M420.328 534.539H417.516V516.617C416.839 517.263 415.948 517.909 414.844 518.555C413.75 519.201 412.766 519.685 411.891 520.008V517.289C413.464 516.549 414.839 515.654 416.016 514.602C417.193 513.549 418.026 512.529 418.516 511.539H420.328V534.539Z" fill="white"/>
<path d="M442.328 531.836V534.539H427.188C427.167 533.862 427.276 533.211 427.516 532.586C427.901 531.555 428.516 530.539 429.359 529.539C430.214 528.539 431.443 527.383 433.047 526.07C435.536 524.029 437.219 522.414 438.094 521.227C438.969 520.029 439.406 518.898 439.406 517.836C439.406 516.721 439.005 515.784 438.203 515.023C437.411 514.253 436.375 513.867 435.094 513.867C433.74 513.867 432.656 514.273 431.844 515.086C431.031 515.898 430.62 517.023 430.609 518.461L427.719 518.164C427.917 516.008 428.661 514.367 429.953 513.242C431.245 512.107 432.979 511.539 435.156 511.539C437.354 511.539 439.094 512.148 440.375 513.367C441.656 514.586 442.297 516.096 442.297 517.898C442.297 518.815 442.109 519.716 441.734 520.602C441.359 521.487 440.734 522.419 439.859 523.398C438.995 524.378 437.552 525.721 435.531 527.43C433.844 528.846 432.76 529.81 432.281 530.32C431.802 530.82 431.406 531.326 431.094 531.836H442.328Z" fill="white"/>
</svg>
